<?xml version="1.0" encoding="utf-8"?>
<!-- Generator: Adobe Illustrator 19.2.1, SVG Export Plug-In . SVG Version: 6.00 Build 0)  -->
<svg version="1.1" id="Layer_1" xmlns="http://www.w3.org/2000/svg" xmlns:xlink="http://www.w3.org/1999/xlink" x="0px" y="0px"
	 viewBox="0 0 30.4 30.4" style="enable-background:new 0 0 30.4 30.4;" xml:space="preserve">
<style type="text/css">
	.st0{fill:#007B3C;}
</style>
<g>
	<path class="st0" d="M21.7,18.4c-0.6,0-1.1,0.5-1.1,1.1v1.7H10v-1.7c0-0.6-0.5-1.1-1.1-1.1c-0.6,0-1.1,0.5-1.1,1.1v2.8
		c0,0.6,0.5,1.1,1.1,1.1h12.8c0.6,0,1.1-0.5,1.1-1.1v-2.8C22.8,18.9,22.3,18.4,21.7,18.4L21.7,18.4z M22.5,18.8"/>
	<path class="st0" d="M14.9,19.6c0.2,0.2,0.5,0.2,0.7,0l3.9-3.9c0.1-0.1,0.1-0.3,0.1-0.4c-0.1-0.1-0.2-0.2-0.4-0.2h-1.8V7.9
		C17.4,7.4,17,7,16.5,7H14c-0.5,0-0.9,0.4-0.9,0.9V15h-1.8c-0.2,0-0.3,0.1-0.4,0.2c-0.1,0.1,0,0.3,0.1,0.4L14.9,19.6z"/>
</g>
</svg>
