<?xml version="1.0" encoding="utf-8"?>
<!-- Generator: Adobe Illustrator 19.0.0, SVG Export Plug-In . SVG Version: 6.00 Build 0)  -->
<svg version="1.1" id="Capa_1" xmlns="http://www.w3.org/2000/svg" xmlns:xlink="http://www.w3.org/1999/xlink" x="0px" y="0px"
	 viewBox="-281 404.9 32 32" style="enable-background:new -281 404.9 32 32;" xml:space="preserve">
<style type="text/css">
	.st0{fill:none;stroke:#A1A1A1;stroke-width:1.0397;stroke-miterlimit:10;}
	.st1{fill:#E55B25;}
	.st2{fill:none;stroke:#A1A2A1;stroke-width:1.0397;stroke-miterlimit:10;}
	.st3{fill:#E65A24;}
</style>
<g>
	<g>
		<g>
			<g>
				<g>
					<circle class="st0" cx="17" cy="826" r="13.2"/>
				</g>
			</g>
		</g>
	</g>
</g>
<g>
	<g id="XMLID_29_">
		<path id="XMLID_30_" class="st1" d="M22.3,831.3c-0.2,0-0.4,0.2-0.4,0.4v1h-9.5c-0.6,0-1-0.5-1.1-1l0,0c0,0,0,0,0-0.1
			c0-0.6,0.5-1,1.1-1h9.7h0.1l0,0c0.2,0,0.4-0.2,0.4-0.4v-10.7c0-0.2-0.2-0.4-0.4-0.4h-9.8c-1,0-1.8,0.8-1.8,1.8l0,0
			c0,0.9,0,9.4,0,10.6c0,0,0,0,0,0.1c0,1,0.8,1.8,1.7,1.8c0,0,0,0,0.1,0h9.9c0.2,0,0.4-0.2,0.4-0.4v-1.4
			C22.7,831.5,22.5,831.3,22.3,831.3z M14.4,822.7c0-0.4,0.3-0.7,0.7-0.7h3.6c0.4,0,0.7,0.3,0.7,0.7v1c0,0.4-0.3,0.7-0.7,0.7h-3.6
			c-0.4,0-0.7-0.3-0.7-0.7V822.7z"/>
	</g>
</g>
<g>
	<g>
		<g>
			<g>
				<g>
					<circle class="st2" cx="-264" cy="421" r="13.2"/>
				</g>
			</g>
		</g>
	</g>
</g>
<g>
	<g>
		<path class="st3" d="M-258.7,426.3c-0.2,0-0.4,0.2-0.4,0.4v1h-9.5c-0.6,0-1-0.5-1.1-1c0,0,0,0,0,0c0,0,0,0,0-0.1
			c0-0.6,0.5-1,1.1-1h9.7c0,0,0.1,0,0.1,0l0,0c0.2,0,0.4-0.2,0.4-0.4v-10.7c0-0.2-0.2-0.4-0.4-0.4h-9.8c-1,0-1.8,0.8-1.8,1.8
			c0,0,0,0,0,0c0,0.9,0,9.4,0,10.6c0,0,0,0,0,0.1c0,1,0.8,1.8,1.7,1.8c0,0,0,0,0.1,0h9.9c0.2,0,0.4-0.2,0.4-0.4v-1.4
			C-258.3,426.5-258.5,426.3-258.7,426.3z M-266.6,417.7c0-0.4,0.3-0.7,0.7-0.7h3.6c0.4,0,0.7,0.3,0.7,0.7v1c0,0.4-0.3,0.7-0.7,0.7
			h-3.6c-0.4,0-0.7-0.3-0.7-0.7V417.7z"/>
	</g>
</g>
</svg>
