<?xml version="1.0" encoding="utf-8"?>
<!-- Generator: Adobe Illustrator 19.2.1, SVG Export Plug-In . SVG Version: 6.00 Build 0)  -->
<svg version="1.1" id="Layer_1" xmlns="http://www.w3.org/2000/svg" xmlns:xlink="http://www.w3.org/1999/xlink" x="0px" y="0px"
	 viewBox="0 0 28.2 28.2" style="enable-background:new 0 0 28.2 28.2;" xml:space="preserve">
<style type="text/css">
	.st0{fill:#FFFFFF;}
	.st1{fill:#007B3C;}
</style>
<g>
	<g>
		<g>
			<g>
				<circle class="st0" cx="14.1" cy="14.1" r="14.1"/>
			</g>
		</g>
	</g>
	<g>
		<path class="st1" d="M10,19.4v3.4h9v-5.6h-9V19.4z M11.1,18.3h6.7v1.1h-6.7V18.3z M11.1,20.6h6.7v1.1h-6.7V20.6z M11.1,20.6"/>
		<path class="st1" d="M19,9.3V6h-9v5.6h9V9.3z M19,9.3"/>
		<path class="st1" d="M21.2,9.3h-1.1v3.4H8.9V9.3H7.7c-1.1,0-2.2,1.1-2.2,2.2v5.6c0,1.1,1.1,2.2,2.2,2.2h1.1v-3.4h11.2v3.4h1.1
			c1.1,0,2.2-1.1,2.2-2.2v-5.6C23.5,10.5,22.3,9.3,21.2,9.3L21.2,9.3z M21.2,9.3"/>
	</g>
</g>
</svg>
