<?xml version="1.0" encoding="utf-8"?>
<!-- Generator: Adobe Illustrator 19.2.1, SVG Export Plug-In . SVG Version: 6.00 Build 0)  -->
<svg version="1.1" id="Layer_1" xmlns="http://www.w3.org/2000/svg" xmlns:xlink="http://www.w3.org/1999/xlink" x="0px" y="0px"
	 viewBox="0 0 40 40" style="enable-background:new 0 0 40 40;" xml:space="preserve">
<style type="text/css">
	.st0{fill-rule:evenodd;clip-rule:evenodd;fill:#A5A5A4;}
	.st1{fill:#FFFFFF;}
</style>
<g>
	<path class="st0" d="M39.3,20c0,10.6-8.6,19.3-19.3,19.3S0.7,30.6,0.7,20C0.7,9.3,9.3,0.7,20,0.7S39.3,9.3,39.3,20"/>
	<path class="st1" d="M13.5,15.6L13.5,15.6c-1.3,0-2.1-0.8-2.1-1.9c0-1.1,0.8-1.9,2.1-1.9c1.3,0,2,0.8,2.1,1.9
		C15.6,14.8,14.8,15.6,13.5,15.6 M15.3,28.2h-3.7V17.1h3.7V28.2z M28.6,28.2h-3.7v-5.9c0-1.5-0.5-2.5-1.9-2.5c-1,0-1.6,0.7-1.9,1.3
		C21.1,21.4,21,21.7,21,22v6.2h-3.7c0-10,0-11.1,0-11.1H21v1.6h0c0.5-0.8,1.3-1.9,3.3-1.9c2.4,0,4.2,1.6,4.2,5V28.2z"/>
</g>
</svg>
