<?xml version="1.0" encoding="utf-8"?>
<!-- Generator: Adobe Illustrator 19.2.1, SVG Export Plug-In . SVG Version: 6.00 Build 0)  -->
<svg version="1.1" id="Layer_1" xmlns="http://www.w3.org/2000/svg" xmlns:xlink="http://www.w3.org/1999/xlink" x="0px" y="0px"
	 viewBox="0 0 37.6 37.6" style="enable-background:new 0 0 37.6 37.6;" xml:space="preserve">
<style type="text/css">
	.st0{fill:#047C3F;}
</style>
<g>
	<g>
		<path class="st0" d="M25.6,12H11.9c-1.2,0-2.1,0.9-2.1,2v9.5c0,1.1,1,2,2.1,2h13.7c1.2,0,2.1-0.9,2.1-2V14
			C27.8,12.9,26.8,12,25.6,12L25.6,12z M25.6,23.8H11.9c-0.2,0-0.3-0.1-0.3-0.2v-8.3l6.2,5.2c0.1,0.1,0.3,0.2,0.5,0.2h1
			c0.2,0,0.3-0.1,0.5-0.2l6.2-5.2v8.3C26,23.7,25.8,23.8,25.6,23.8L25.6,23.8z M18.8,18.9l-6-5.1h12L18.8,18.9z M18.8,18.9"/>
	</g>
</g>
</svg>
