<?xml version="1.0" encoding="utf-8"?>
<!-- Generator: Adobe Illustrator 19.2.1, SVG Export Plug-In . SVG Version: 6.00 Build 0)  -->
<svg version="1.1" id="Layer_1" xmlns="http://www.w3.org/2000/svg" xmlns:xlink="http://www.w3.org/1999/xlink" x="0px" y="0px"
	 viewBox="0 0 37.6 37.6" style="enable-background:new 0 0 37.6 37.6;" xml:space="preserve">
<style type="text/css">
	.st0{fill:#047C3F;}
	.st1{fill-rule:evenodd;clip-rule:evenodd;fill:#047C3F;}
</style>
<g>
	<g>
		<g>
			<path class="st0" d="M18.9,18.1c2.1,0,3.9-1.7,3.9-3.9c0-2.1-1.7-3.9-3.9-3.9c-2.1,0-3.9,1.7-3.9,3.9
				C15.1,16.4,16.8,18.1,18.9,18.1L18.9,18.1z M18.9,11.4"/>
			<path class="st0" d="M17.4,21.3"/>
		</g>
	</g>
	<g>
		<g>
			<path class="st1" d="M23,33.2 M13,26.6c0.6,0,1.1-0.4,1.2-1c0.5-2.1,2.4-3.7,4.6-3.7c2.3,0,4.2,1.6,4.6,3.7c0.1,0.6,0.6,1,1.2,1
				h0c0.8,0,1.4-0.8,1.2-1.5c-0.7-3.3-3.6-5.7-7.1-5.7c-3.5,0-6.4,2.5-7.1,5.7C11.6,25.9,12.2,26.6,13,26.6L13,26.6z M25,31.1
				 M18.9,31.8"/>
		</g>
	</g>
</g>
</svg>
