<?xml version="1.0" encoding="utf-8"?>
<!-- Generator: Adobe Illustrator 19.2.1, SVG Export Plug-In . SVG Version: 6.00 Build 0)  -->
<svg version="1.1" id="Layer_1" xmlns="http://www.w3.org/2000/svg" xmlns:xlink="http://www.w3.org/1999/xlink" x="0px" y="0px"
	 viewBox="0 0 37.6 37.6" style="enable-background:new 0 0 37.6 37.6;" xml:space="preserve">
<style type="text/css">
	.st0{fill:#047C3F;}
</style>
<g>
	<g>
		<path class="st0" d="M20.8,18C20.9,18,20.9,18.1,20.8,18l2.2,1.3c0.8,0.4,1.9,0.3,2.5-0.4l2.4-2.6c0.6-0.6,0.7-1.8,0.2-2.5
			l-1.3-2.1c-0.4-0.6-1.2-1.4-1.8-1.7L23,8.9c-0.8-0.4-1.9-0.3-2.5,0.4l-2.4,2.6c-0.2,0.2-0.4,0.6-0.5,0.9c-0.1,0.6,0,1.2,0.2,1.6
			l1.3,2.1c0,0,0,0.1,0.1,0.1l-3.2,3.4c-0.5,0-0.9,0.2-1.3,0.5l-4,4.2c-0.2,0.2-0.4,0.5-0.4,0.8c-0.1,0.6,0,1.2,0.5,1.7
			c0.7,0.7,1.8,0.6,2.4-0.1l4-4.2c0.4-0.4,0.5-0.8,0.5-1.3L20.8,18z M20.8,18"/>
	</g>
</g>
</svg>
