<?xml version="1.0" encoding="utf-8"?>
<!-- Generator: Adobe Illustrator 19.0.0, SVG Export Plug-In . SVG Version: 6.00 Build 0)  -->
<svg version="1.1" id="Layer_1" xmlns="http://www.w3.org/2000/svg" xmlns:xlink="http://www.w3.org/1999/xlink" x="0px" y="0px"
	 viewBox="366.2 61.2 722.8 719.6" style="enable-background:new 366.2 61.2 722.8 719.6;" xml:space="preserve">
<style type="text/css">
	.st0{fill:#FFFFFF;}
	.st1{fill:#007B3C;}
</style>
<g>
	<g>
		<g>
			<ellipse class="st0" cx="727.9" cy="420.9" rx="361.7" ry="359.8"/>
		</g>
	</g>
	<g>
		<path class="st1" d="M891.5,414.7L741.9,264.9h-16.6L569.4,414.7c-3.8,3.8-3.8,7.7-2.6,12.8c1.3,3.8,6.4,6.4,10.2,6.4h27v106.5
			c0,6.4,5,11.5,11.4,11.5h78c6.4,0,11.6-5.1,11.6-11.5v-77.5h47v77.5c0,6.4,5.3,11.5,11.7,11.5h74.1c6.4,0,11.2-5.1,11.2-11.5
			V433.9h32.2c5.1,0,8.9-2.6,10.2-6.4C895.3,423.7,895.3,418.5,891.5,414.7z"/>
	</g>
</g>
</svg>
