<?xml version="1.0" encoding="utf-8"?>
<!-- Generator: Adobe Illustrator 19.0.0, SVG Export Plug-In . SVG Version: 6.00 Build 0)  -->
<svg version="1.1" id="Layer_1" xmlns="http://www.w3.org/2000/svg" xmlns:xlink="http://www.w3.org/1999/xlink" x="0px" y="0px"
	 viewBox="366.2 61 719.1 719.4" style="enable-background:new 366.2 61 719.1 719.4;" xml:space="preserve">
<style type="text/css">
	.st0{fill:#FFFFFF;}
	.st1{fill:#006633;}
</style>
<g>
	<g>
		<g>
			<circle class="st0" cx="726" cy="420.9" r="359.8"/>
		</g>
	</g>
</g>
<g>
	<g id="Layer_3_49_">
		<path class="st1" d="M759,329.6h-15.4c-2,0-3.6-1.6-3.6-3.6s1.6-3.6,3.6-3.6H759c2,0,3.6,1.6,3.6,3.6S761,329.6,759,329.6z"/>
		<g>
			<path class="st1" d="M805.2,382.3c-49.5,0-89.7,35.7-89.7,85.2c0,23.7,9.4,45.4,26.5,61c16.6,15.2,39,23.5,63.2,23.5
				c24.2,0,46.6-8.4,63.2-23.5c17.1-15.6,26.5-37.3,26.5-61C894.9,418.1,854.7,382.3,805.2,382.3z M805.2,505.8
				c-21.1,0-38.2-17.1-38.2-38.2s17.1-38.2,38.2-38.2s38.2,17.1,38.2,38.2C843.4,488.6,826.3,505.8,805.2,505.8z"/>
			<path class="st1" d="M620.6,428.7c-35,0-63.5,28.5-63.5,63.5c0,16.8,6.7,32.1,18.8,43.2c11.7,10.7,27.6,16.7,44.8,16.7
				c17.1,0,33-5.9,44.8-16.7c12.1-11.1,18.8-26.4,18.8-43.2C684.1,457.2,655.6,428.7,620.6,428.7z M620.6,519.2
				c-14.9,0-26.9-12.1-26.9-26.9s12.1-26.9,26.9-26.9s26.9,12.1,26.9,26.9S635.5,519.2,620.6,519.2z"/>
			<path class="st1" d="M735.3,399.5c18.4-17.1,43.2-26.6,69.8-26.6c17.9,0,35,4.3,49.9,12.3c0.1,0,0.1,0.1,0.2,0.1
				c1.4,1,3.1,1.5,4.9,1.3c4-0.4,6.9-3.9,6.6-7.9c-0.1-0.8-6.8-76.3-8.1-91.1c-2-23.4-18.9-23.4-25.3-23.4h-98.1
				c-8.8,0-25,0-30,24.8c-2.8,14-9,43.4-13.8,65.8c-25.2,0-48.8,0-67,0v-36.8c0-5.4-4.3-9.7-9.7-9.7c-5.4,0-9.7,4.3-9.7,9.7v36.8
				c-9.3,0-15.2,0-16.4,0c-28.1,0-36.8,60.4-21.3,87.4c13.3-14.2,32.2-23.1,53.2-23.1c36.7,0,67.2,27.2,72.2,62.6h14.2
				c-0.7-4.7-1.1-9.4-1.1-14.3C706,441.2,716.4,417.1,735.3,399.5z M844.3,289c0.8,9.3,3.7,42.3,5.8,65.9c-11.5,0-33.6,0-60.4,0
				v-76.1h43.7C840.5,278.8,843.4,279.2,844.3,289z M719.6,292c2.7-13.2,7.6-13.1,15.7-13.1h42.7v76.1c-22.5,0-47.5,0-71.7,0
				C711.4,331.2,717.6,301.9,719.6,292z"/>
		</g>
	</g>
</g>
</svg>
