<?xml version="1.0" encoding="utf-8"?>
<!-- Generator: Adobe Illustrator 19.2.1, SVG Export Plug-In . SVG Version: 6.00 Build 0)  -->
<svg version="1.1" id="Layer_1" xmlns="http://www.w3.org/2000/svg" xmlns:xlink="http://www.w3.org/1999/xlink" x="0px" y="0px"
	 viewBox="0 0 50.4 50.4" style="enable-background:new 0 0 50.4 50.4;" xml:space="preserve">
<style type="text/css">
	.st0{fill:#FFFFFF;}
	.st1{fill:#E9580C;}
</style>
<g>
	<circle class="st0" cx="25.2" cy="25.2" r="23.1"/>
	<g>
		<path class="st1" d="M27.6,11.5h-0.7c-0.4,0-0.7-0.3-0.7-0.7v0c0-0.9-0.7-1.6-1.6-1.6h0c-0.9,0-1.6,0.7-1.6,1.6v0
			c0,0.4-0.3,0.7-0.7,0.7h-0.7c-0.8,0-1.4,0.6-1.4,1.4v0c0,0.8,0.6,1.4,1.4,1.4h6c0.8,0,1.4-0.6,1.4-1.4v0
			C29,12.1,28.4,11.5,27.6,11.5L27.6,11.5z M24.6,11.5c-0.4,0-0.7-0.3-0.7-0.7c0-0.4,0.3-0.7,0.7-0.7c0.4,0,0.7,0.3,0.7,0.7
			C25.3,11.1,25,11.5,24.6,11.5L24.6,11.5z M27.7,38.1H16.1c-1,0-1.8-0.8-1.8-1.8V14.2c0-1,0.8-1.8,1.4-1.8h3.7c0,0.2,0,0.3,0,0.5
			c0,1.3,1,2.3,2.3,2.3h6c1.3,0,2.3-1,2.3-2.3c0-0.2,0-0.3,0-0.4h2.8c1.5,0,2.3,0.8,2.3,1.8V28c-0.2,0-0.3,0-0.5,0
			c-0.6,0-1.2,0.1-1.8,0.2V17.4H16.6v18.4h10.6C27.2,36.6,27.4,37.4,27.7,38.1L27.7,38.1z M34.5,29.4c-3.3,0-6,2.7-6,6
			c0,3.3,2.7,6,6,6c3.3,0,6-2.7,6-6C40.5,32.1,37.8,29.4,34.5,29.4L34.5,29.4z M38.4,34.1l-3.7,4.1c-0.2,0.2-0.4,0.3-0.7,0.3
			c-0.2,0-0.4-0.1-0.6-0.2l-2.3-1.8c-0.4-0.3-0.5-0.9-0.1-1.3c0.3-0.4,0.9-0.5,1.3-0.1l1.6,1.3l3.1-3.5c0.3-0.4,0.9-0.4,1.3-0.1
			C38.7,33.2,38.7,33.8,38.4,34.1L38.4,34.1z M30.4,25.3H23c-0.3,0-0.5-0.2-0.5-0.5v-0.5c0-0.3,0.2-0.5,0.5-0.5h7.4
			c0.3,0,0.5,0.2,0.5,0.5v0.5C30.8,25,30.6,25.3,30.4,25.3L30.4,25.3z M30.4,21.1H23c-0.3,0-0.5-0.2-0.5-0.5v-0.5
			c0-0.3,0.2-0.5,0.5-0.5h7.4c0.3,0,0.5,0.2,0.5,0.5v0.5C30.8,20.9,30.6,21.1,30.4,21.1L30.4,21.1z M28.1,28.9H23
			c-0.3,0-0.5-0.2-0.5-0.5V28c0-0.3,0.2-0.5,0.5-0.5h5.1c0.3,0,0.5,0.2,0.5,0.5v0.5C28.5,28.7,28.3,28.9,28.1,28.9L28.1,28.9z
			 M27.1,33.1H23c-0.3,0-0.5-0.2-0.5-0.5v-0.5c0-0.3,0.2-0.5,0.5-0.5h4.1c0.3,0,0.5,0.2,0.5,0.5v0.5C27.6,32.9,27.4,33.1,27.1,33.1
			L27.1,33.1z M21.7,19.4L20,21.3c-0.1,0.1-0.2,0.1-0.3,0.1c-0.1,0-0.2,0-0.3-0.1l-1.1-0.8c-0.2-0.1-0.2-0.4-0.1-0.6
			c0.1-0.2,0.4-0.2,0.6-0.1l0.7,0.6l1.4-1.6c0.2-0.2,0.4-0.2,0.6,0C21.8,19,21.8,19.2,21.7,19.4L21.7,19.4z M21.7,23.5L20,25.4
			c-0.1,0.1-0.2,0.1-0.3,0.1c-0.1,0-0.2,0-0.3-0.1l-1.1-0.8c-0.2-0.1-0.2-0.4-0.1-0.6c0.1-0.2,0.4-0.2,0.6-0.1l0.7,0.6l1.4-1.6
			c0.2-0.2,0.4-0.2,0.6,0C21.8,23.1,21.8,23.3,21.7,23.5L21.7,23.5z M21.7,27.4L20,29.3c-0.1,0.1-0.2,0.1-0.3,0.1
			c-0.1,0-0.2,0-0.3-0.1l-1.1-0.8c-0.2-0.1-0.2-0.4-0.1-0.6c0.1-0.2,0.4-0.2,0.6-0.1l0.7,0.6l1.4-1.6c0.2-0.2,0.4-0.2,0.6,0
			C21.8,27,21.8,27.2,21.7,27.4L21.7,27.4z M21.7,31.4L20,33.3c-0.1,0.1-0.2,0.1-0.3,0.1c-0.1,0-0.2,0-0.3-0.1l-1.1-0.8
			c-0.2-0.1-0.2-0.4-0.1-0.6c0.1-0.2,0.4-0.2,0.6-0.1l0.7,0.6l1.4-1.6c0.2-0.2,0.4-0.2,0.6,0C21.8,30.9,21.8,31.2,21.7,31.4
			L21.7,31.4z M21.7,31.4"/>
	</g>
</g>
</svg>
