<?xml version="1.0" encoding="utf-8"?>
<!-- Generator: Adobe Illustrator 19.2.1, SVG Export Plug-In . SVG Version: 6.00 Build 0)  -->
<svg version="1.1" id="Layer_1" xmlns="http://www.w3.org/2000/svg" xmlns:xlink="http://www.w3.org/1999/xlink" x="0px" y="0px"
	 viewBox="0 0 50.4 50.4" style="enable-background:new 0 0 50.4 50.4;" xml:space="preserve">
<style type="text/css">
	.st0{fill:#FFFFFF;}
	.st1{fill:#007B3C;}
</style>
<g>
	<g>
		<circle class="st0" cx="25.2" cy="25.2" r="23.1"/>
	</g>
	<g>
		<path class="st1" d="M19.2,16.6c0,1.4-1.1,2.5-2.5,2.5c-1.4,0-2.5-1.1-2.5-2.5c0-1.4,1.1-2.5,2.5-2.5
			C18.1,14.1,19.2,15.2,19.2,16.6L19.2,16.6z M19.2,16.6"/>
		<path class="st1" d="M13.9,27.9h0.2v5c0,0.7,0.6,1.2,1.2,1.2H18c0.7,0,1.2-0.6,1.2-1.2v-0.3c-0.2-0.4-0.4-0.9-0.4-1.5v-6.5
			c0-1.3,0.8-2.4,1.9-2.8v-0.5c0-0.7-0.6-1.2-1.2-1.2h-5.6c-0.7,0-1.2,0.6-1.2,1.2v5.4C12.7,27.4,13.2,27.9,13.9,27.9L13.9,27.9z
			 M13.9,27.9"/>
		<path class="st1" d="M36.6,16.6c0,1.4-1.1,2.5-2.5,2.5c-1.4,0-2.5-1.1-2.5-2.5c0-1.4,1.1-2.5,2.5-2.5
			C35.5,14.1,36.6,15.2,36.6,16.6L36.6,16.6z M36.6,16.6"/>
		<path class="st1" d="M30.1,21.3v0.5c1.1,0.5,1.9,1.6,1.9,2.8v6.5c0,0.5-0.1,1-0.4,1.5v0.3c0,0.7,0.6,1.2,1.2,1.2h2.6
			c0.7,0,1.2-0.6,1.2-1.2v-5h0.2c0.7,0,1.2-0.6,1.2-1.2v-5.4c0-0.7-0.6-1.2-1.2-1.2h-5.6C30.6,20,30.1,20.6,30.1,21.3L30.1,21.3z
			 M30.1,21.3"/>
		<path class="st1" d="M20.8,24.7v6.5c0,0.7,0.6,1.2,1.2,1.2h0.5v5.9c0,0.7,0.6,1.2,1.2,1.2h3.3c0.7,0,1.2-0.6,1.2-1.2v-5.9h0.5
			c0.7,0,1.2-0.6,1.2-1.2v-6.5c0-0.7-0.6-1.2-1.2-1.2H22C21.3,23.4,20.8,24,20.8,24.7L20.8,24.7z M20.8,24.7"/>
		<path class="st1" d="M28.3,19.5c0,1.6-1.3,2.9-2.9,2.9c-1.6,0-2.9-1.3-2.9-2.9c0-1.6,1.3-2.9,2.9-2.9C27,16.6,28.3,17.9,28.3,19.5
			L28.3,19.5z M28.3,19.5"/>
	</g>
</g>
</svg>
