<?xml version="1.0" encoding="utf-8"?>
<!-- Generator: Adobe Illustrator 19.2.1, SVG Export Plug-In . SVG Version: 6.00 Build 0)  -->
<svg version="1.1" id="Layer_1" xmlns="http://www.w3.org/2000/svg" xmlns:xlink="http://www.w3.org/1999/xlink" x="0px" y="0px"
	 viewBox="0 0 50.4 50.4" style="enable-background:new 0 0 50.4 50.4;" xml:space="preserve">
<style type="text/css">
	.st0{fill:#007B3C;}
</style>
<g>
	<g>
		<path class="st0" d="M25.2,39.7c7.4,0,13.3-6,13.3-13.3c0-2.3-0.6-4.4-1.6-6.3c-0.1,0-0.2,0-0.3,0c-0.1,0-0.1,0-0.2,0L34.8,20
			l-1.2,1.2c0.9,1.5,1.5,3.3,1.5,5.2c0,5.4-4.4,9.8-9.8,9.8c-5.4,0-9.8-4.4-9.8-9.8c0-5.4,4.4-9.8,9.8-9.8c1.9,0,3.7,0.5,5.2,1.5
			l1.1-1.1L31.3,15c0-0.2,0-0.3,0-0.5c-1.8-0.9-3.9-1.5-6.1-1.5c-7.3,0-13.3,6-13.3,13.3C11.9,33.7,17.9,39.7,25.2,39.7L25.2,39.7z"
			/>
		<path class="st0" d="M25.2,22.9c0.1,0,0.2,0,0.3,0l2.5-2.5l0.1-0.1c-0.8-0.4-1.8-0.6-2.8-0.6c-3.6,0-6.5,2.9-6.5,6.6
			c0,3.6,2.9,6.6,6.5,6.6c3.6,0,6.6-2.9,6.6-6.6c0-1-0.2-1.9-0.6-2.8l-0.1,0.1l-2.5,2.5c0,0.1,0,0.2,0,0.3c0,1.9-1.5,3.4-3.4,3.4
			c-1.9,0-3.4-1.5-3.4-3.4C21.8,24.5,23.3,22.9,25.2,22.9L25.2,22.9z M25.2,22.9"/>
		<path class="st0" d="M38.9,14.5l0.8-0.8c0.4-0.4,0.4-0.9,0-1.3l-0.5-0.6c-0.2-0.2-0.4-0.3-0.6-0.3c-0.2,0-0.5,0.1-0.7,0.3L37,12.8
			l-0.2-2.4c0-0.2-0.2-0.3-0.3-0.3c-0.1,0-0.2,0-0.2,0.1l-3.6,3.6c-0.3,0.3-0.5,0.8-0.5,1.2l0,0.1l0.2,2.2l-1.3,1.3l-2.3,2.3
			L28.8,21l-2.2,2.2l-1,1c-0.1,0.1-0.2,0.3-0.2,0.5l-0.1,0.8c0,0.5,0.3,0.8,0.8,0.8h0l0.8,0c0.2,0,0.4-0.1,0.5-0.2l7-7l2,0.2l0.1,0
			c0,0,0.1,0,0.1,0c0.4,0,0.8-0.2,1.1-0.5l3.6-3.6c0.2-0.2,0.1-0.5-0.2-0.5L38.9,14.5z M38.9,14.5"/>
	</g>
</g>
</svg>
