<?xml version="1.0" encoding="utf-8"?>
<!-- Generator: Adobe Illustrator 19.2.1, SVG Export Plug-In . SVG Version: 6.00 Build 0)  -->
<svg version="1.1" id="Layer_1" xmlns="http://www.w3.org/2000/svg" xmlns:xlink="http://www.w3.org/1999/xlink" x="0px" y="0px"
	 viewBox="0 0 28.2 28.2" style="enable-background:new 0 0 28.2 28.2;" xml:space="preserve">
<style type="text/css">
	.st0{fill:#FFFFFF;}
	.st1{fill:#047C3F;}
</style>
<g>
	<g>
		<g>
			<g>
				<path class="st0" d="M0,14.1C0,6.3,6.3,0,14.1,0c14,0,14.1,13.8,14.1,14.1c0,7.8-6.3,14.1-14.1,14.1C6.4,28.2,0,21.9,0,14.1z"/>
			</g>
		</g>
		<g>
			<path class="st1" d="M17.6,15.9c-1.1,0-2.1,0.6-2.7,1.5l-3.4-1.9c0.2-0.4,0.4-0.9,0.4-1.4c0-0.3-0.1-0.6-0.1-0.9l3.5-2
				c0.6,0.6,1.4,1,2.3,1c1.7,0,3.2-1.4,3.2-3.2c0-1.7-1.4-3.2-3.2-3.2c-1.7,0-3.2,1.4-3.2,3.2c0,0.3,0.1,0.6,0.1,0.9l-3.5,2
				c-0.6-0.6-1.4-1-2.3-1c-1.7,0-3.2,1.4-3.2,3.2c0,1.7,1.4,3.2,3.2,3.2c0.7,0,1.4-0.3,1.9-0.7l3.8,2.2c0,0.1,0,0.2,0,0.3
				c0,1.7,1.4,3.2,3.2,3.2c1.7,0,3.2-1.4,3.2-3.2C20.7,17.3,19.3,15.9,17.6,15.9L17.6,15.9z"/>
		</g>
	</g>
</g>
</svg>
