<?xml version="1.0" encoding="utf-8"?>
<!-- Generator: Adobe Illustrator 19.2.1, SVG Export Plug-In . SVG Version: 6.00 Build 0)  -->
<svg version="1.1" id="Layer_1" xmlns="http://www.w3.org/2000/svg" xmlns:xlink="http://www.w3.org/1999/xlink" x="0px" y="0px"
	 viewBox="0 0 16.6 18" style="enable-background:new 0 0 16.6 18;" xml:space="preserve">
<style type="text/css">
	.st0{fill:#047C3F;}
</style>
<g>
	<g>
		<g>
			<path class="st0" d="M12.8,10.8c-1.1,0-2.1,0.6-2.7,1.5l-3.4-1.9C6.9,10,7.1,9.5,7.1,9C7.1,8.7,7,8.4,7,8.1l3.5-2
				c0.6,0.6,1.4,1,2.3,1c1.7,0,3.2-1.4,3.2-3.2c0-1.7-1.4-3.2-3.2-3.2c-1.7,0-3.2,1.4-3.2,3.2c0,0.3,0.1,0.6,0.1,0.9l-3.5,2
				c-0.6-0.6-1.4-1-2.3-1C2.2,5.8,0.7,7.2,0.7,9c0,1.7,1.4,3.2,3.2,3.2c0.7,0,1.4-0.3,1.9-0.7l3.8,2.2c0,0.1,0,0.2,0,0.3
				c0,1.7,1.4,3.2,3.2,3.2c1.7,0,3.2-1.4,3.2-3.2C15.9,12.2,14.5,10.8,12.8,10.8L12.8,10.8z"/>
		</g>
	</g>
</g>
</svg>
