<?xml version="1.0" encoding="utf-8"?>
<!-- Generator: Adobe Illustrator 19.2.1, SVG Export Plug-In . SVG Version: 6.00 Build 0)  -->
<svg version="1.1" id="Layer_1" xmlns="http://www.w3.org/2000/svg" xmlns:xlink="http://www.w3.org/1999/xlink" x="0px" y="0px"
	 viewBox="0 0 40 40" style="enable-background:new 0 0 40 40;" xml:space="preserve">
<style type="text/css">
	.st0{fill-rule:evenodd;clip-rule:evenodd;fill:#A5A5A4;}
	.st1{fill:#FFFFFF;}
</style>
<g>
	<path class="st0" d="M39.3,20c0,10.6-8.6,19.3-19.3,19.3C9.3,39.3,0.7,30.6,0.7,20C0.7,9.3,9.3,0.7,20,0.7
		C30.6,0.7,39.3,9.3,39.3,20"/>
	<path class="st1" d="M24.8,13.8h-1.8c-1.4,0-1.6,0.7-1.6,1.6v2.1h3.3l-0.4,3.3h-2.8v8.5H18v-8.5h-2.8v-3.3H18v-2.4
		c0-2.8,1.7-4.4,4.2-4.4c1.2,0,2.2,0.1,2.5,0.1V13.8z"/>
</g>
</svg>
