<?xml version="1.0" encoding="utf-8"?>
<!-- Generator: Adobe Illustrator 19.2.1, SVG Export Plug-In . SVG Version: 6.00 Build 0)  -->
<svg version="1.1" id="Layer_1" xmlns="http://www.w3.org/2000/svg" xmlns:xlink="http://www.w3.org/1999/xlink" x="0px" y="0px"
	 viewBox="0 0 32.5 32.5" style="enable-background:new 0 0 32.5 32.5;" xml:space="preserve">
<style type="text/css">
	.st0{fill:#E9580C;}
</style>
<g>
	<g>
		<g>
			<g>
				<g>
					<path class="st0" d="M19.1,10c-1.2,0-2.3,0.5-3.1,1.4c-0.8-0.9-1.9-1.4-3.1-1.4c-2.3,0-4.2,2-4.2,4.4c0,0.7,0.1,1.3,0.3,1.9
						c0,0,0.2,0.5,0.3,0.8c1.8,3.8,6.6,6.3,6.6,6.3s4.9-2.5,6.6-6.3c0,0,0.2-0.5,0.3-0.8c0.2-0.6,0.3-1.2,0.3-1.9
						C23.3,12,21.4,10,19.1,10L19.1,10z M19.1,11.3"/>
				</g>
			</g>
		</g>
	</g>
</g>
</svg>
