<?xml version="1.0" encoding="utf-8"?>
<!-- Generator: Adobe Illustrator 19.2.1, SVG Export Plug-In . SVG Version: 6.00 Build 0)  -->
<svg version="1.1" id="Layer_1" xmlns="http://www.w3.org/2000/svg" xmlns:xlink="http://www.w3.org/1999/xlink" x="0px" y="0px"
	 viewBox="0 0 33.2 33.2" style="enable-background:new 0 0 33.2 33.2;" xml:space="preserve">
<style type="text/css">
	.st0{fill:#F12C25;}
</style>
<g>
	<path class="st0" d="M22.9,16v-2h-1.4v2h-2v1.4h2v2h1.4v-2h2V16H22.9z M17.7,18.3L17,17.8c-0.3-0.2-0.5-0.5-0.5-0.9
		c0-0.5,0.3-0.9,0.7-1.1c0.9-0.7,1.8-1.4,1.8-2.9c0-1.4-0.9-2.2-1.4-2.6h1.2l0.8-1h-4.2c-3,0-4.5,1.9-4.5,3.9c0,1.6,1.2,3.3,3.4,3.3
		h0.5c-0.1,0.2-0.3,0.5-0.3,0.9c0,0.7,0.3,1,0.6,1.4c-0.9,0.1-2.7,0.3-4,1.1c-1.2,0.7-1.6,1.8-1.6,2.5c0,1.6,1.4,3.1,4.5,3.1
		c3.7,0,5.4-2,5.4-4C19.4,19.9,18.7,19.1,17.7,18.3L17.7,18.3z M12.6,12.1c0-1.5,0.9-2.2,1.8-2.2c1.8,0,2.7,2.4,2.7,3.7
		c0,1.8-1.4,2.1-2,2.1C13.4,15.8,12.6,13.7,12.6,12.1L12.6,12.1z M15,24.3c-2.2,0-3.7-1-3.7-2.5c0-1.5,1.4-2,1.8-2.2
		c0.9-0.3,2-0.3,2.2-0.3h0.5c1.6,1.2,2.3,1.6,2.3,2.7C18.1,23.3,16.8,24.3,15,24.3L15,24.3z M15,24.3"/>
</g>
</svg>
