<?xml version="1.0" encoding="utf-8"?>
<!-- Generator: Adobe Illustrator 19.2.1, SVG Export Plug-In . SVG Version: 6.00 Build 0)  -->
<svg version="1.1" id="Layer_1" xmlns="http://www.w3.org/2000/svg" xmlns:xlink="http://www.w3.org/1999/xlink" x="0px" y="0px"
	 viewBox="0 0 60.4 60.4" style="enable-background:new 0 0 60.4 60.4;" xml:space="preserve">
<style type="text/css">
	.st0{fill:#047834;}
</style>
<g>
	<g>
		<path class="st0" d="M45.5,19.6H41c-0.7,0-1.3,0.6-1.3,1.3v20.2c0,0.7,0.6,1.3,1.3,1.3h4.5c0.7,0,1.3-0.6,1.3-1.3V20.9
			C46.8,20.2,46.2,19.6,45.5,19.6L45.5,19.6z M43.4,29.1c-1,0-1.8-0.8-1.8-1.8s0.8-1.8,1.8-1.8c1,0,1.8,0.8,1.8,1.8
			S44.4,29.1,43.4,29.1L43.4,29.1z M43.4,29.1"/>
		<path class="st0" d="M34.7,18.7h-18c-1.5,0-2.7,1.2-2.7,2.7v13.4c0,1.5,1.2,2.7,2.7,2.7h7.1v2c0,0.1,0,0.1-0.1,0.1h-5
			c-0.6,0-1,0.4-1,1v0.8c0,0.5,0.5,1,1,1h14.1c0.5,0,1-0.4,1-1v-0.8c0-0.5-0.4-1-1-1h-5c0,0-0.1-0.1-0.1-0.1v-2h7
			c1.5,0,2.7-1.2,2.7-2.7V21.4C37.4,19.9,36.2,18.7,34.7,18.7L34.7,18.7z M34.7,21.4l0,12h-18v-12H34.7z M34.7,21.4"/>
	</g>
</g>
</svg>
