<?xml version="1.0" encoding="utf-8"?>
<!-- Generator: Adobe Illustrator 19.2.1, SVG Export Plug-In . SVG Version: 6.00 Build 0)  -->
<svg version="1.1" id="Layer_1" xmlns="http://www.w3.org/2000/svg" xmlns:xlink="http://www.w3.org/1999/xlink" x="0px" y="0px"
	 viewBox="0 0 37.6 37.6" style="enable-background:new 0 0 37.6 37.6;" xml:space="preserve">
<style type="text/css">
	.st0{fill-rule:evenodd;clip-rule:evenodd;fill:#047C3F;}
</style>
<g>
	<g>
		<g>
			<path class="st0" d="M27.2,25.1l-3.8-3.8c0,0,0,0-0.1-0.1c0.8-1.1,1.2-2.5,1.2-4c0-4-3.3-7.3-7.3-7.3c-4,0-7.3,3.3-7.3,7.3
				c0,4,3.3,7.3,7.3,7.3c1.5,0,2.8-0.4,4-1.2c0,0,0,0,0.1,0.1l3.8,3.8c0.6,0.6,1.5,0.6,2.1,0C27.8,26.6,27.8,25.7,27.2,25.1
				L27.2,25.1z M17.2,22c-2.6,0-4.7-2.1-4.7-4.7c0-2.6,2.1-4.7,4.7-4.7c2.6,0,4.7,2.1,4.7,4.7C22,19.8,19.8,22,17.2,22L17.2,22z
				 M17.2,22"/>
		</g>
	</g>
</g>
</svg>
