<?xml version="1.0" encoding="utf-8"?>
<!-- Generator: Adobe Illustrator 19.2.1, SVG Export Plug-In . SVG Version: 6.00 Build 0)  -->
<svg version="1.1" id="Layer_1" xmlns="http://www.w3.org/2000/svg" xmlns:xlink="http://www.w3.org/1999/xlink" x="0px" y="0px"
	 viewBox="0 0 37.6 37.6" style="enable-background:new 0 0 37.6 37.6;" xml:space="preserve">
<style type="text/css">
	.st0{fill:#047C3F;}
</style>
<g>
	<g>
		<g>
			<g>
				<path class="st0" d="M22.4,11.7c-1.4,0-2.7,0.6-3.6,1.7c-0.9-1-2.2-1.7-3.6-1.7c-2.7,0-5,2.3-5,5.2c0,0.8,0.1,1.5,0.4,2.2
					c0,0,0.2,0.6,0.4,1c2.1,4.5,7.9,7.4,7.9,7.4s5.8-2.9,7.9-7.4c0,0,0.3-0.6,0.4-1c0.2-0.7,0.4-1.5,0.4-2.2
					C27.4,14,25.2,11.7,22.4,11.7L22.4,11.7z M22.4,11.7"/>
			</g>
		</g>
	</g>
</g>
</svg>
