<?xml version="1.0" encoding="utf-8"?>
<!-- Generator: Adobe Illustrator 19.2.1, SVG Export Plug-In . SVG Version: 6.00 Build 0)  -->
<svg version="1.1" id="Layer_1" xmlns="http://www.w3.org/2000/svg" xmlns:xlink="http://www.w3.org/1999/xlink" x="0px" y="0px"
	 viewBox="0 0 60.4 60.4" style="enable-background:new 0 0 60.4 60.4;" xml:space="preserve">
<style type="text/css">
	.st0{fill-rule:evenodd;clip-rule:evenodd;fill:#FFFFFF;}
	.st1{fill:#047834;}
</style>
<g>
	<g>
		<g>
			<circle class="st0" cx="30.2" cy="30.2" r="28.3"/>
		</g>
	</g>
	<g>
		<path class="st1" d="M40.6,23.1v-3.3H17.4V38c0,0,0,3.3,3.3,3.3h20.8c0,0,2.5-0.1,2.5-3.3V23.1H40.6z M20.7,39.7
			c-1.7,0-1.7-1.7-1.7-1.7V21.4H39V38c0,0.8,0.2,1.3,0.6,1.7H20.7z M20.7,39.7"/>
		<rect x="20.7" y="24.7" class="st1" width="16.6" height="1.7"/>
		<rect x="29.9" y="34.7" class="st1" width="5.8" height="1.7"/>
		<rect x="29.9" y="31.4" class="st1" width="7.5" height="1.7"/>
		<rect x="29.9" y="28.1" class="st1" width="7.5" height="1.7"/>
		<rect x="20.7" y="28.1" class="st1" width="7.5" height="8.3"/>
	</g>
</g>
</svg>
