<?xml version="1.0" encoding="utf-8"?>
<!-- Generator: Adobe Illustrator 19.2.1, SVG Export Plug-In . SVG Version: 6.00 Build 0)  -->
<svg version="1.1" id="Layer_1" xmlns="http://www.w3.org/2000/svg" xmlns:xlink="http://www.w3.org/1999/xlink" x="0px" y="0px"
	 viewBox="0 0 60.4 60.4" style="enable-background:new 0 0 60.4 60.4;" xml:space="preserve">
<style type="text/css">
	.st0{fill-rule:evenodd;clip-rule:evenodd;fill:#FFFFFF;}
	.st1{fill:#047834;}
</style>
<g>
	<g>
		<g>
			<circle class="st0" cx="30.2" cy="30.2" r="28.3"/>
		</g>
	</g>
	<g>
		<g>
			<path class="st1" d="M42,18.1h-2.2v-2.2c0-0.3-0.1-0.6-0.4-0.8c-0.2-0.2-0.5-0.3-0.8-0.2l-19.2,3.2c-0.5,0.1-0.8,0.5-0.8,1v25
				c0,0.6,0.4,1,1,1H42c0.6,0,1-0.4,1-1v-25C43,18.5,42.6,18.1,42,18.1L42,18.1z M20.6,19.9l17.2-2.9v23l-17.2,2.9V19.9z M41,43.1
				h-9.3l7.3-1.2c0.5-0.1,0.8-0.5,0.8-1V20.1H41V43.1z M41,43.1"/>
		</g>
		<path class="st1" d="M34.2,21.6l-10.3,1.6c-0.5,0.1-0.9,0.6-0.8,1.1c0.1,0.5,0.5,0.8,1,0.8c0.1,0,0.1,0,0.2,0l10.3-1.6
			c0.5-0.1,0.9-0.6,0.8-1.1C35.3,21.8,34.8,21.5,34.2,21.6L34.2,21.6z M34.2,21.6"/>
	</g>
</g>
</svg>
