<?xml version="1.0" encoding="utf-8"?>
<!-- Generator: Adobe Illustrator 19.2.1, SVG Export Plug-In . SVG Version: 6.00 Build 0)  -->
<svg version="1.1" id="Layer_1" xmlns="http://www.w3.org/2000/svg" xmlns:xlink="http://www.w3.org/1999/xlink" x="0px" y="0px"
	 viewBox="0 0 23.5 23.5" style="enable-background:new 0 0 23.5 23.5;" xml:space="preserve">
<style type="text/css">
	.st0{fill:#E9580C;}
	.st1{fill:none;stroke:#E9580C;stroke-width:0.7878;stroke-miterlimit:10;}
</style>
<g>
	<path class="st0" d="M12.1,10.9c-0.7-0.3-0.8-0.4-0.8-0.7c0-0.2,0.2-0.5,0.7-0.5c0.4,0,0.8,0.2,0.8,0.2c0,0,0.1,0,0.1,0
		c0.1,0,0.2-0.1,0.2-0.1l0.1-0.3c0-0.1,0-0.2-0.1-0.2C12.7,9.1,12.2,9,12.2,9c0,0,0,0,0,0l0-0.4c0-0.1-0.1-0.2-0.2-0.2h-0.2
		c-0.1,0-0.2,0.1-0.2,0.2V9c0,0,0,0-0.1,0.1c-0.7,0.2-1.1,0.6-1.1,1.2c0,0.8,0.6,1.1,1.3,1.4c0.5,0.2,0.8,0.4,0.8,0.7
		c0,0.3-0.3,0.6-0.8,0.6c-0.4,0-0.9-0.2-0.9-0.2c0,0-0.1,0-0.1,0c-0.1,0-0.2,0.1-0.2,0.2l-0.1,0.3c0,0.1,0,0.2,0.1,0.2
		c0.3,0.2,0.9,0.3,1,0.3c0,0,0,0,0,0v0.5c0,0.1,0.1,0.2,0.2,0.2h0.2c0.1,0,0.2-0.1,0.2-0.2v-0.5c0,0,0-0.1,0-0.1
		c0.7-0.2,1.1-0.7,1.1-1.3C13.3,11.7,12.9,11.3,12.1,10.9L12.1,10.9z M12.1,10.9"/>
	<path class="st1" d="M11.8,16.8c-3,0-5.4-2.4-5.4-5.4c0-3,2.4-5.4,5.4-5.4s5.4,2.4,5.4,5.4C17.2,14.4,14.8,16.8,11.8,16.8
		L11.8,16.8z M11.8,16.2"/>
</g>
</svg>
