<?xml version="1.0" encoding="utf-8"?>
<!-- Generator: Adobe Illustrator 19.2.1, SVG Export Plug-In . SVG Version: 6.00 Build 0)  -->
<svg version="1.1" id="Layer_1" xmlns="http://www.w3.org/2000/svg" xmlns:xlink="http://www.w3.org/1999/xlink" x="0px" y="0px"
	 viewBox="0 0 60.4 60.4" style="enable-background:new 0 0 60.4 60.4;" xml:space="preserve">
<style type="text/css">
	.st0{fill-rule:evenodd;clip-rule:evenodd;fill:#FFFFFF;}
	.st1{fill:#E9580C;}
</style>
<g>
	<g>
		<g>
			<circle class="st0" cx="30.2" cy="30.2" r="28.3"/>
		</g>
	</g>
	<path class="st1" d="M43.8,17.3H31.7v-2.2c0-0.7-0.6-1.3-1.3-1.3c-0.7,0-1.3,0.6-1.3,1.3v2.2H16.9c-0.7,0-1.3,0.6-1.3,1.3v20.9
		c0,0.7,0.6,1.3,1.3,1.3h12.1v8.9c0,0.7,0.6,1.3,1.3,1.3c0.7,0,1.3-0.6,1.3-1.3v-8.9h12.1c0.7,0,1.3-0.6,1.3-1.3V18.6
		C45.1,17.9,44.5,17.3,43.8,17.3L43.8,17.3z M42.5,38.2H18.2V19.9h24.2V38.2L42.5,38.2z M42.5,38.2"/>
</g>
</svg>
