<?xml version="1.0" encoding="utf-8"?>
<!-- Generator: Adobe Illustrator 19.2.1, SVG Export Plug-In . SVG Version: 6.00 Build 0)  -->
<svg version="1.1" id="Layer_1" xmlns="http://www.w3.org/2000/svg" xmlns:xlink="http://www.w3.org/1999/xlink" x="0px" y="0px"
	 viewBox="0 0 50.4 50.4" style="enable-background:new 0 0 50.4 50.4;" xml:space="preserve">
<style type="text/css">
	.st0{fill:none;stroke:#E9580C;stroke-width:1.7556;stroke-miterlimit:10;}
	.st1{fill:#E9580C;}
</style>
<g>
	<g>
		<g>
			<path class="st0" d="M32.3,21.9l-1.6-1.2c-0.3-0.2-0.6-0.1-0.8,0.1l-4.2,5.8l-1.7-1.2l4.2-5.8c0.2-0.3,0.1-0.6-0.1-0.8l-1.6-1.2
				c-0.3-0.2-0.6-0.1-0.8,0.1l-10,13.5c-0.1,0.1-0.1,0.2-0.1,0.3l-0.7,7.1c0,0.2,0.1,0.4,0.2,0.5c0.2,0.1,0.4,0.1,0.6,0.1l6.6-2.9
				c0.1,0,0.2-0.1,0.2-0.2l10-13.5C32.6,22.5,32.6,22.1,32.3,21.9L32.3,21.9z M32.3,21.9"/>
			<path class="st1" d="M38.2,13.7l-5.9-4.2c-0.3-0.2-0.6-0.1-0.8,0.1l-4.4,6.1c-0.2,0.3-0.1,0.6,0.1,0.8l5.9,4.2
				c0.3,0.2,0.6,0.1,0.8-0.1l4.4-6.1C38.5,14.3,38.5,13.9,38.2,13.7L38.2,13.7z M38.2,13.7"/>
		</g>
		<polygon class="st1" points="15.4,34.7 19.5,37.6 15,39.3 		"/>
	</g>
</g>
</svg>
