<?xml version="1.0" encoding="utf-8"?>
<!-- Generator: Adobe Illustrator 19.2.1, SVG Export Plug-In . SVG Version: 6.00 Build 0)  -->
<svg version="1.1" id="Layer_1" xmlns="http://www.w3.org/2000/svg" xmlns:xlink="http://www.w3.org/1999/xlink" x="0px" y="0px"
	 viewBox="0 0 23.5 23.5" style="enable-background:new 0 0 23.5 23.5;" xml:space="preserve">
<style type="text/css">
	.st0{fill:none;stroke:#E9580C;stroke-width:0.7878;stroke-miterlimit:10;}
	.st1{fill:none;stroke:#E9580C;stroke-miterlimit:10;}
</style>
<g>
	<g>
		<path class="st0" d="M9.5,10.9L6,14.4c-0.2,0.2-0.2,0.4,0,0.6l3.4,3.4c0.2,0.2,0.4,0.2,0.6,0l8.5-8.5"/>
	</g>
	<g>
		<path class="st0" d="M17.2,11.1l2-2c0.2-0.2,0.2-0.4,0-0.6l-3.4-3.4c-0.2-0.2-0.4-0.2-0.6,0l-2.7,2.7l-3.4,3.4"/>
	</g>
	<line class="st1" x1="7.6" y1="12.8" x2="9.7" y2="14.9"/>
	<line class="st1" x1="9.7" y1="10.7" x2="11.8" y2="12.8"/>
	<line class="st1" x1="11.8" y1="8.5" x2="13.9" y2="10.7"/>
	<line class="st1" x1="13.9" y1="6.4" x2="16" y2="8.5"/>
</g>
</svg>
