<?xml version="1.0" encoding="utf-8"?>
<!-- Generator: Adobe Illustrator 16.0.0, SVG Export Plug-In . SVG Version: 6.00 Build 0)  -->
<!DOCTYPE svg PUBLIC "-//W3C//DTD SVG 1.1//EN" "http://www.w3.org/Graphics/SVG/1.1/DTD/svg11.dtd">
<svg version="1.1" id="Layer_1" xmlns="http://www.w3.org/2000/svg" xmlns:xlink="http://www.w3.org/1999/xlink" x="0px" y="0px"
	 width="1024px" height="768px" viewBox="0 0 1024 768" enable-background="new 0 0 1024 768" xml:space="preserve">
<g>
	<g>
		<g>
			<circle fill="#FFFFFF" cx="512" cy="384" r="359.841"/>
		</g>
	</g>
</g>
<g>
	<g>
		<g>
			<path fill="#006633" d="M465.156,421.588c-3.642,0-6.621,2.979-6.621,6.621v9.932c0,3.642,2.979,6.621,6.621,6.621
				s6.621-2.979,6.621-6.621v-9.932C471.777,424.568,468.798,421.588,465.156,421.588z"/>
			<path fill="#006633" d="M654.849,227.592c-1.654-1.324-3.973-1.655-5.959-0.662l-76.142,27.146
				c-4.304,1.656-8.607,2.317-12.911,2.649c-0.662,0-0.993-0.332-1.655-0.332s-0.993,0-1.655,0.332
				c-4.304-0.332-8.607-0.993-12.58-2.649l-59.589-21.187c-12.249-4.635-25.491-4.635-37.74,0l-76.142,27.146
				c-2.648,0.993-4.304,3.311-4.304,6.29v241.667c0,2.317,0.993,4.304,2.648,5.297c0.992,0.662,2.317,1.324,3.972,1.324
				c0.663,0,1.656,0,2.318-0.331l76.142-27.146c9.601-3.312,19.532-3.312,28.802,0l59.258,21.187c12.58,4.635,25.491,4.635,38.07,0
				l76.143-27.146c2.648-0.993,4.304-3.312,4.304-6.29V233.22C657.497,230.572,656.504,228.585,654.849,227.592z M551.229,497.73
				c-2.648-0.331-5.297-0.993-7.614-1.985l-59.258-21.519c-12.58-4.635-25.491-4.635-38.071,0l-67.204,24.167V270.629l71.839-25.491
				c2.317-0.993,4.966-1.656,7.614-1.986v155.263c0,3.642,2.979,6.621,6.621,6.621s6.621-2.979,6.621-6.621V243.152
				c2.648,0.331,5.297,0.993,7.614,1.986l59.589,21.187c3.973,1.324,7.945,2.317,12.249,2.979V497.73L551.229,497.73z
				 M572.417,495.413c-2.648,0.992-5.297,1.654-7.945,1.985V268.973c4.304-0.662,8.276-1.324,12.58-2.979l67.203-23.835v227.763l0,0
				L572.417,495.413z"/>
		</g>
	</g>
</g>
</svg>
