<?xml version="1.0" encoding="utf-8"?>
<!-- Generator: Adobe Illustrator 19.2.1, SVG Export Plug-In . SVG Version: 6.00 Build 0)  -->
<svg version="1.1" id="Layer_1" xmlns="http://www.w3.org/2000/svg" xmlns:xlink="http://www.w3.org/1999/xlink" x="0px" y="0px"
	 viewBox="0 0 33.2 33.2" style="enable-background:new 0 0 33.2 33.2;" xml:space="preserve">
<style type="text/css">
	.st0{fill:#797C7F;}
	.st1{fill:#FFFFFF;}
</style>
<g>
	<g>
		<g>
			<g>
				<g>
					<circle class="st0" cx="16.8" cy="16.7" r="12.9"/>
				</g>
			</g>
		</g>
	</g>
	<path class="st1" d="M18.4,16.3C18.4,16.3,18.4,16.4,18.4,16.3l1.7,1c0.6,0.3,1.5,0.2,1.9-0.3l1.9-2c0.5-0.5,0.5-1.4,0.2-1.9
		l-1-1.6c-0.3-0.5-0.9-1.1-1.4-1.3L20,9.2c-0.6-0.3-1.5-0.2-1.9,0.3l-1.9,2c-0.2,0.2-0.3,0.4-0.4,0.7c-0.1,0.4,0,0.9,0.2,1.2l1,1.6
		c0,0,0,0,0,0.1l-2.5,2.6c-0.4,0-0.7,0.1-1,0.4l-3.1,3.2c-0.2,0.2-0.3,0.4-0.3,0.6c-0.1,0.4,0,0.9,0.4,1.3c0.5,0.5,1.4,0.5,1.9,0
		l3.1-3.2c0.3-0.3,0.4-0.7,0.4-1L18.4,16.3z M18.4,16.3"/>
</g>
</svg>
