<?xml version="1.0" encoding="utf-8"?>
<!-- Generator: Adobe Illustrator 19.2.1, SVG Export Plug-In . SVG Version: 6.00 Build 0)  -->
<svg version="1.1" id="Layer_1" xmlns="http://www.w3.org/2000/svg" xmlns:xlink="http://www.w3.org/1999/xlink" x="0px" y="0px"
	 viewBox="0 0 23.5 23.5" style="enable-background:new 0 0 23.5 23.5;" xml:space="preserve">
<style type="text/css">
	.st0{fill:none;stroke:#E9580C;stroke-width:0.7878;stroke-miterlimit:10;}
</style>
<g>
	<path class="st0" d="M17.2,11.7L12,6.3l-0.6,0l-5.5,5.3c-0.1,0.1-0.2,0.3-0.1,0.4c0.1,0.2,0.2,0.2,0.4,0.2h0.9v3.8
		c0,0.2,0.2,0.4,0.4,0.4h2.8c0.2,0,0.4-0.2,0.4-0.4v-2.8h1.7v2.8c0,0.2,0.2,0.4,0.4,0.4h2.6c0.2,0,0.4-0.2,0.4-0.4v-3.8h1.1
		c0.2,0,0.3-0.1,0.4-0.2C17.4,12,17.3,11.8,17.2,11.7z"/>
</g>
</svg>
