<?xml version="1.0" encoding="utf-8"?>
<!-- Generator: Adobe Illustrator 16.0.0, SVG Export Plug-In . SVG Version: 6.00 Build 0)  -->
<!DOCTYPE svg PUBLIC "-//W3C//DTD SVG 1.1//EN" "http://www.w3.org/Graphics/SVG/1.1/DTD/svg11.dtd">
<svg version="1.1" id="Layer_1" xmlns="http://www.w3.org/2000/svg" xmlns:xlink="http://www.w3.org/1999/xlink" x="0px" y="0px"
	 width="1024px" height="768px" viewBox="0 0 1024 768" enable-background="new 0 0 1024 768" xml:space="preserve">
<g>
	<g>
		<g>
			<circle fill="#FFFFFF" cx="512" cy="384" r="359.841"/>
		</g>
	</g>
</g>
<g>
	<path fill="#006633" d="M648.07,275.511c-4.226-1.103-7.916,1.507-9.267,5.417c-0.302,0.873-0.611,1.742-0.941,2.605
		c-0.134,0.351-0.269,0.701-0.405,1.05c-0.633,1.509-1.292,3.006-1.993,4.484c-3.341,7.037-7.346,13.771-11.928,20.072
		c-0.383,0.527-0.768,1.054-1.159,1.576c-0.033,0.044-0.079,0.105-0.13,0.172c-0.544,0.7-1.093,1.397-1.652,2.084
		c-1.243,1.528-2.516,3.034-3.835,4.499c-2.729,3.03-5.602,5.939-8.669,8.631c-0.847,0.743-1.702,1.479-2.577,2.189
		c-0.347,0.283-1.846,1.438-1.794,1.413c-1.265,0.93-2.551,1.833-3.873,2.679c-2.758,1.766-5.627,3.373-8.621,4.705
		c2.413-1.729,4.762-3.685,6.982-5.906c18.013-18.012,18.888-44.273,18.93-47.21l0.127-9.261c0.07-5.115-4.02-9.204-9.134-9.134
		c-5.114,0.071-9.261,0.127-9.261,0.127c-2.641,0.038-24.137,0.752-41.539,13.988c0.26-2.12,0.471-4.239,0.637-6.349
		c1.171-14.809,0.161-29.691-1.613-44.411c-0.493-4.102-3.082-7.588-7.586-7.588c-3.764,0-8.084,3.475-7.589,7.588
		c1.725,14.304,2.782,28.81,1.705,43.208c-0.15,2-0.328,4-0.567,5.991c-0.017,0.14-0.029,0.25-0.039,0.339
		c-0.007,0.037-0.011,0.071-0.017,0.112c-0.055,0.395-0.11,0.788-0.168,1.183c-0.119,0.785-0.239,1.569-0.374,2.351
		c-0.598,3.47-1.331,6.922-2.308,10.308c-0.53,1.844-1.105,3.677-1.768,5.477c-0.023,0.062-0.067,0.174-0.123,0.313
		c-5.407-11.647-12.642-19.366-13.895-20.657l-6.459-6.638c-3.567-3.667-9.352-3.667-12.918,0c-3.567,3.666-6.46,6.638-6.46,6.638
		c-1.857,1.912-16.771,17.917-19.522,39.893l-5.11-5.254c-2.822-2.902-7.997-2.279-11.557,1.392c-3.56,3.67-6.446,6.646-6.446,6.646
		c-1.857,1.911-16.754,17.933-19.505,39.91l-5.095-5.239c-2.813-2.892-7.972-2.251-11.519,1.436
		c-3.546,3.688-6.429,6.669-6.429,6.669c-2.047,2.106-19.868,21.43-19.868,46.901c0,25.476,18.219,44.929,20.266,47.036l1.373,1.397
		l-40.18,40.182c-4.444,4.444-5.322,10.774-2.012,14.084c3.31,3.31,9.639,2.434,14.084-2.012l40.193-40.193
		c2.456,2.372,21.449,19.939,46.71,19.952c25.475-0.003,44.679-17.938,46.786-19.983l6.639-6.459
		c3.666-3.567,4.286-8.747,1.385-11.57c-2.902-2.822-5.255-5.11-5.255-5.11c21.982-2.751,37.98-17.665,39.893-19.521l6.639-6.46
		c3.667-3.567,4.287-8.747,1.385-11.569c-2.902-2.823-5.255-5.111-5.255-5.111c21.982-2.75,37.981-17.664,39.894-19.521l6.638-6.46
		c3.667-3.568,3.667-9.351,0-12.917c-3.666-3.568-6.638-6.459-6.638-6.459c-0.818-0.795-4.221-3.992-9.566-7.605
		c12.895-5.113,24.132-14.521,33.077-24.887c10.65-12.341,19.355-26.501,24.692-41.945
		C654.837,280.869,651.839,276.496,648.07,275.511z M564.396,297.375c13.355-13.356,34.719-13.653,34.719-13.653
		s-0.297,21.363-13.653,34.718c-13.355,13.355-34.718,13.652-34.718,13.652S551.04,310.73,564.396,297.375z M510.707,290.126
		c0,0,14.896,15.316,14.896,34.206c0,18.89-14.896,34.206-14.896,34.206s-14.896-15.315-14.896-34.206
		C495.811,305.442,510.707,290.126,510.707,290.126z M468.048,332.784c0,0,14.899,15.313,14.899,34.203
		c0,18.89-14.896,34.206-14.896,34.206s-14.898-15.313-14.898-34.203C453.152,348.1,468.048,332.784,468.048,332.784z
		 M425.39,443.855c0,0-14.896-15.314-14.896-34.206c0-18.89,14.896-34.205,14.896-34.205s14.896,15.314,14.896,34.205
		C440.285,428.54,425.39,443.855,425.39,443.855z M473.173,472.328c-17.514,0.003-32.012-12.863-33.962-14.67l3.104-3.104
		c5.451-4.378,17.24-12.023,30.851-12.023c18.89,0,34.219,14.908,34.219,14.908S492.063,472.328,473.173,472.328z M515.83,429.668
		c-17.515,0.003-32.011-12.862-33.961-14.669l3.105-3.104c5.45-4.378,17.246-12.019,30.855-12.024
		c18.888,0.003,34.221,14.918,34.221,14.918S534.721,429.668,515.83,429.668z M558.491,387.007
		c-17.514,0.003-32.01-12.863-33.961-14.67l0.392-0.39l-0.196-0.196c3.085-2.817,16.856-14.457,33.714-14.457
		c18.891,0,34.263,14.823,34.263,14.823S577.382,387.007,558.491,387.007z"/>
</g>
</svg>
