<?xml version="1.0" encoding="utf-8"?>
<!-- Generator: Adobe Illustrator 16.0.0, SVG Export Plug-In . SVG Version: 6.00 Build 0)  -->
<!DOCTYPE svg PUBLIC "-//W3C//DTD SVG 1.1//EN" "http://www.w3.org/Graphics/SVG/1.1/DTD/svg11.dtd">
<svg version="1.1" id="Layer_1" xmlns="http://www.w3.org/2000/svg" xmlns:xlink="http://www.w3.org/1999/xlink" x="0px" y="0px"
	 width="1024px" height="768px" viewBox="0 0 1024 768" enable-background="new 0 0 1024 768" xml:space="preserve">
<g>
	<g>
		<g>
			<circle fill="#FFFFFF" cx="512" cy="384" r="359.841"/>
		</g>
	</g>
</g>
<g>
	<g>
		<path fill="#006633" d="M678.425,299.007h-54.489c3.685-5.843,6.701-12.361,9.002-19.496c5.943-18.432,5.119-34.637,5.083-35.317
			l-1.3-23.406l-14.976,20.35c-7.735,10.51-17.252,19.472-28.29,26.636c-8.818,5.724-18.647,10.333-29.203,13.702
			c-6.684,2.132-12.833,3.494-17.947,4.368h-68.689c-18.959-3.259-52.353-13.369-75.415-44.707l-14.974-20.35l-1.302,23.406
			c-0.037,0.68-0.856,16.886,5.084,35.317c2.299,7.135,5.316,13.653,9.001,19.496h-54.442l-0.172,6.616
			c-0.022,0.854-0.321,21.118,18.893,36.456c11.775,9.4,28.014,14.803,48.357,16.106c-0.008,20.233,3.839,35.133,11.688,45.41
			c14.254,18.656,17.794,74.074,17.955,93.856l0.016,1.701l1.05,1.491c1.229,1.746,4.792,5.115,14.822,8.039
			c12.258,3.572,30.365,5.385,53.823,5.385c23.457,0,41.562-1.81,53.821-5.385c10.03-2.924,13.591-6.293,14.822-8.039l1.051-1.491
			l0.015-1.701c0.155-19.773,3.689-75.184,17.955-93.854c7.854-10.278,11.694-25.177,11.688-45.411
			c20.343-1.303,36.582-6.706,48.357-16.106c19.214-15.338,18.915-35.602,18.894-36.457L678.425,299.007z M419.952,299.007
			c-7.87-9.658-12.038-21.144-14.235-31.054c4.396,3.783,9.08,7.277,14.037,10.466c7.346,4.725,15.293,8.777,23.719,12.118
			c-5.331,2.161-11.483,5.052-16.425,8.47H419.952L419.952,299.007z M439.209,387.545c-6.624-2.699-8.474-10.079-4.13-16.478
			c4.344-6.402,13.237-9.403,19.857-6.703c6.624,2.7,8.474,10.075,4.13,16.478C454.724,387.243,445.834,390.245,439.209,387.545z
			 M564.327,494.35c-2.142,0.994-6.706,2.619-15.454,3.961c-4.624-5.325-14.859-12.474-36.496-12.559v-0.003
			c-0.063,0-0.127,0-0.194,0.003c-0.063,0-0.126-0.003-0.194-0.003v0.003c-21.704,0.085-31.935,7.283-36.537,12.61
			c-8.971-1.35-13.625-3.004-15.797-4.01c-0.068-2.745-0.213-7.216-0.531-12.803c12.639-8.578,35.375-29.455,36.211-69.028
			c1.163-54.918-45.889-63.151-28.462-84.017c17.427-20.866,36.595-16.364,45.307-16.364c8.713,0,27.882-4.501,45.306,16.364
			c17.427,20.865-29.625,29.099-28.462,84.017c0.829,39.191,23.131,60.042,35.839,68.772
			C564.544,486.999,564.394,491.561,564.327,494.35z M585.167,387.545c-6.624,2.7-15.518-0.302-19.858-6.703
			c-4.343-6.402-2.492-13.781,4.132-16.478c6.623-2.7,15.517,0.301,19.86,6.703C593.643,377.467,591.79,384.846,585.167,387.545z
			 M603.992,299.007h-7.051c-4.949-3.421-11.115-6.315-16.447-8.479c8.418-3.337,16.356-7.39,23.696-12.108
			c4.956-3.189,9.645-6.683,14.036-10.466C616.034,277.863,611.863,289.346,603.992,299.007z"/>
	</g>
</g>
</svg>
