<?xml version="1.0" encoding="utf-8"?>
<!-- Generator: Adobe Illustrator 19.0.0, SVG Export Plug-In . SVG Version: 6.00 Build 0)  -->
<svg version="1.1" id="Layer_1" xmlns="http://www.w3.org/2000/svg" xmlns:xlink="http://www.w3.org/1999/xlink" x="0px" y="0px"
	 viewBox="366.2 61 719.6 719.7" style="enable-background:new 366.2 61 719.6 719.7;" xml:space="preserve">
<style type="text/css">
	.st0{fill:#FFFFFF;}
	.st1{fill:#006633;}
</style>
<g>
	<g>
		<g>
			<circle class="st0" cx="726" cy="420.9" r="359.8"/>
		</g>
	</g>
	<path class="st1" d="M833.1,309.9H618.9L583,345.2v8.9v35.7c0,19.7,16,35.7,36,35.7v89.2c-20,0-35.8,16.2-35.8,36.2h285.5
		c0-20-15.8-36.2-35.8-36.2v-89.2c20,0,36-16,36-35.7v-35.7v-8.9L833.1,309.9z M797,389.8c0,9.8-7.7,17.8-17.5,17.8
		s-17.5-8-17.5-17.8v-35.9h35V389.8z M690,389.8c0,9.8-7.7,17.8-17.5,17.8c-9.8,0-17.5-8-17.5-17.8v-35.9h35V389.8z M708,353.9h36
		v35.9c0,9.8-8.2,17.8-18,17.8c-9.8,0-18-8-18-17.8V353.9z M601,389.8v-35.9h36v35.9c0,9.8-8.2,17.8-18,17.8
		C609.2,407.6,601,399.6,601,389.8z M637,514.9v-94.4c3-2,6.3-4.4,8.8-7.4c6.6,7.5,16,12.3,26.7,12.3c10.7,0,20.2-4.8,26.7-12.3
		c6.6,7.5,16.1,12.3,26.8,12.3c6.6,0,12.9-1.9,17.9-4.9v94.4H637z M815.2,514.9H762v-94.4c5,3.1,11.2,4.9,17.7,4.9
		c10.7,0,20.1-4.8,26.6-12.3c2.6,2.9,5.7,5.4,8.7,7.4v94.2L815.2,514.9z M851,389.8c0,9.8-8.2,17.8-18,17.8s-18-8-18-17.8v-35.9h36
		V389.8z M833,300.9H619v-36h214V300.9z M788.5,461.2c0,4.9-4,8.9-8.9,8.9c-4.9,0-8.9-4-8.9-8.9c0-4.9,4-8.9,8.9-8.9
		C784.5,452.3,788.5,456.2,788.5,461.2z"/>
</g>
</svg>
