<?xml version="1.0" encoding="utf-8"?>
<!-- Generator: Adobe Illustrator 19.0.0, SVG Export Plug-In . SVG Version: 6.00 Build 0)  -->
<svg version="1.1" id="Layer_1" xmlns="http://www.w3.org/2000/svg" xmlns:xlink="http://www.w3.org/1999/xlink" x="0px" y="0px"
	 viewBox="-41 164.9 512 512" style="enable-background:new -41 164.9 512 512;" xml:space="preserve">
<style type="text/css">
	.st0{fill:#FFFFFF;}
</style>
<path class="st0" d="M407,270.5H23l-64,55.3v13.8v55.3c0,30.6,28.7,55.3,64,55.3v138.3c-35.3,0-64,24.8-64,55.3h512
	c0-30.6-28.6-55.3-64-55.3V450.3c35.4,0,64-24.8,64-55.3v-55.3v-13.8L407,270.5z M343,394.9c0,15.3-14.4,27.7-32,27.7
	s-32-12.4-32-27.7v-55.3h64V394.9z M151,394.9c0,15.3-14.3,27.7-32,27.7c-17.6,0-32-12.4-32-27.7v-55.3h64V394.9z M183,339.6h64
	v55.3c0,15.3-14.3,27.7-32,27.7c-17.6,0-32-12.4-32-27.7V339.6z M-9,394.9v-55.3h64v55.3c0,15.3-14.3,27.7-32,27.7
	C5.4,422.6-9,410.2-9,394.9z M55,588.6v-146c6.1-3.1,11.4-6.9,16-11.4c11.8,11.6,28.8,19.1,48,19.1c19.3,0,36.3-7.5,48-19.1
	c11.8,11.6,28.8,19.1,48,19.1c11.8,0,22.6-2.9,32-7.7v146H55z M375,588.6h-96v-146c9.4,4.8,20.3,7.7,32,7.7c19.3,0,36.3-7.5,48-19.1
	c4.6,4.5,9.9,8.3,16,11.4V588.6z M439,394.9c0,15.3-14.4,27.7-32,27.7s-32-12.4-32-27.7v-55.3h64V394.9z M407,256.6H23v-55.3h384
	V256.6z M327,505.6c0,7.6-7.1,13.8-16,13.8c-8.8,0-16-6.2-16-13.8s7.2-13.8,16-13.8C319.9,491.8,327,497.9,327,505.6z"/>
</svg>
