<?xml version="1.0" encoding="utf-8"?>
<!-- Generator: Adobe Illustrator 19.0.0, SVG Export Plug-In . SVG Version: 6.00 Build 0)  -->
<svg version="1.1" id="Layer_1" xmlns="http://www.w3.org/2000/svg" xmlns:xlink="http://www.w3.org/1999/xlink" x="0px" y="0px"
	 viewBox="62 61.2 719.6 719.7" style="enable-background:new 62 61.2 719.6 719.7;" xml:space="preserve">
<style type="text/css">
	.st0{fill:#FFFFFF;}
	.st1{fill:#006633;}
</style>
<g>
	<g>
		<g>
			<circle class="st0" cx="421.8" cy="421" r="359.8"/>
		</g>
	</g>
</g>
<g id="layer1" transform="translate(417.94434,-503.86183)">
	<path id="path4402" class="st1" d="M-106,855.3c-5.8,0-10.5,4.7-10.5,10.5v178.1c0,5.8,4.7,10.5,10.5,10.5h219.7
		c5.8,0,10.5-4.7,10.5-10.5V922.3l-62.9,24.8v-24.8l-62.9,24.8v-25.5l-62.9,24.8v-80.6c0-5.8-4.7-10.5-10.5-10.5H-106z M-80.8,988.3
		h14.3c4.8,0,8.6,3.8,8.6,8.6v14.3c0,4.8-3.8,8.6-8.6,8.6h-14.3c-4.8,0-8.6-3.8-8.6-8.6v-14.3C-89.4,992.1-85.6,988.3-80.8,988.3z
		 M-28.4,988.3h14.3c4.8,0,8.6,3.8,8.6,8.6v14.3c0,4.8-3.8,8.6-8.6,8.6h-14.3c-4.8,0-8.6-3.8-8.6-8.6v-14.3
		C-37,992.1-33.1,988.3-28.4,988.3z M24.1,988.3h14.3c4.8,0,8.6,3.8,8.6,8.6v14.3c0,4.8-3.8,8.6-8.6,8.6H24.1
		c-4.8,0-8.6-3.8-8.6-8.6v-14.3C15.5,992.1,19.3,988.3,24.1,988.3z M76.5,988.3h14.3c4.8,0,8.6,3.8,8.6,8.6v14.3
		c0,4.8-3.8,8.6-8.6,8.6H76.5c-4.8,0-8.6-3.8-8.6-8.6v-14.3C67.9,992.1,71.8,988.3,76.5,988.3z M18,755.5
		c-12.3,0-23.7,6.3-30.2,16.7c-7.3-6.3-16.6-9.9-26.2-9.9c-17.2,0-32.5,11.1-37.9,27.5c-2.7-0.8-5.4-1.2-8.2-1.2c-16,0-29,13-29,29
		c0,16,13,29,29,29c9.2,0,17.8-4.3,23.2-11.7c6.7,4.7,14.7,7.3,22.9,7.3c7.1,0,14.1-1.9,20.3-5.6c3.8,2.4,8.1,3.7,12.6,3.7
		c9.1,0,17.4-5.3,21.2-13.6c0.8,0.1,1.6,0.1,2.4,0.1c19.7,0,35.7-16,35.7-35.7C53.7,771.4,37.7,755.5,18,755.5z"/>
</g>
</svg>
