<?xml version="1.0" encoding="utf-8"?>
<!-- Generator: Adobe Illustrator 19.2.1, SVG Export Plug-In . SVG Version: 6.00 Build 0)  -->
<svg version="1.1" id="Layer_1" xmlns="http://www.w3.org/2000/svg" xmlns:xlink="http://www.w3.org/1999/xlink" x="0px" y="0px"
	 viewBox="0 0 33.2 33.2" style="enable-background:new 0 0 33.2 33.2;" xml:space="preserve">
<style type="text/css">
	.st0{fill:#797C7F;}
	.st1{fill:#FFFFFF;}
</style>
<g>
	<g>
		<g>
			<g>
				<circle class="st0" cx="16.9" cy="16.7" r="12.9"/>
			</g>
			<g>
				<path class="st1" d="M19.6,11.2c-1.1,0-2.1,0.5-2.8,1.3c-0.7-0.8-1.7-1.3-2.8-1.3c-2.1,0-3.8,1.8-3.8,4c0,0.6,0.1,1.2,0.3,1.7
					c0,0,0.2,0.5,0.3,0.8c1.6,3.4,6,5.6,6,5.6s4.4-2.2,6-5.6c0,0,0.2-0.5,0.3-0.8c0.2-0.5,0.3-1.1,0.3-1.7
					C23.4,13,21.7,11.2,19.6,11.2L19.6,11.2z M19.6,11.2"/>
			</g>
		</g>
	</g>
</g>
</svg>
