<?xml version="1.0" encoding="utf-8"?>
<!-- Generator: Adobe Illustrator 19.0.0, SVG Export Plug-In . SVG Version: 6.00 Build 0)  -->
<svg version="1.1" id="Layer_1" xmlns="http://www.w3.org/2000/svg" xmlns:xlink="http://www.w3.org/1999/xlink" x="0px" y="0px"
	 viewBox="-267 390.5 60.4 60.4" style="enable-background:new -267 390.5 60.4 60.4;" xml:space="preserve">
<style type="text/css">
	.st0{fill:#FFFFFF;}
	.st1{fill:#006633;}
</style>
<g>
	<g>
		<g>
			<circle class="st0" cx="-236.8" cy="420.7" r="28.3"/>
		</g>
	</g>
	<g>
		<g>
			<g>
				<path class="st1" d="M-241.5,425.8c-0.4,0-0.7,0.3-0.7,0.7v1c0,0.4,0.3,0.7,0.7,0.7s0.7-0.3,0.7-0.7v-1
					C-240.8,426.1-241.1,425.8-241.5,425.8z"/>
				<path class="st1" d="M-222.5,406.4c-0.2-0.1-0.4-0.2-0.6-0.1l-7.6,2.7c-0.4,0.2-0.9,0.2-1.3,0.3c-0.1,0-0.1,0-0.2,0
					s-0.1,0-0.2,0c-0.4,0-0.9-0.1-1.3-0.3l-6-2.1c-1.2-0.5-2.5-0.5-3.8,0l-7.6,2.7c-0.3,0.1-0.4,0.3-0.4,0.6v24.2
					c0,0.2,0.1,0.4,0.3,0.5c0.1,0.1,0.2,0.1,0.4,0.1c0.1,0,0.2,0,0.2,0l7.6-2.7c1-0.3,2-0.3,2.9,0l5.9,2.1c1.3,0.5,2.5,0.5,3.8,0
					l7.6-2.7c0.3-0.1,0.4-0.3,0.4-0.6V407C-222.3,406.7-222.3,406.5-222.5,406.4z M-232.9,433.4c-0.3,0-0.5-0.1-0.8-0.2l-5.9-2.2
					c-1.3-0.5-2.5-0.5-3.8,0l-6.7,2.4v-22.8l7.2-2.5c0.2-0.1,0.5-0.2,0.8-0.2v15.5c0,0.4,0.3,0.7,0.7,0.7s0.7-0.3,0.7-0.7V408
					c0.3,0,0.5,0.1,0.8,0.2l6,2.1c0.4,0.1,0.8,0.2,1.2,0.3V433.4L-232.9,433.4z M-230.8,433.2c-0.3,0.1-0.5,0.2-0.8,0.2v-22.8
					c0.4-0.1,0.8-0.1,1.3-0.3l6.7-2.4v22.8l0,0L-230.8,433.2z"/>
			</g>
		</g>
	</g>
</g>
</svg>
