<?xml version="1.0" encoding="utf-8"?>
<!-- Generator: Adobe Illustrator 19.0.0, SVG Export Plug-In . SVG Version: 6.00 Build 0)  -->
<svg version="1.1" id="Layer_1" xmlns="http://www.w3.org/2000/svg" xmlns:xlink="http://www.w3.org/1999/xlink" x="0px" y="0px"
	 viewBox="-267 390.5 60.4 60.4" style="enable-background:new -267 390.5 60.4 60.4;" xml:space="preserve">
<style type="text/css">
	.st0{fill:#FFFFFF;}
	.st1{fill:#006633;}
</style>
<g>
	<g>
		<g>
			<circle class="st0" cx="-236.8" cy="420.7" r="28.3"/>
		</g>
	</g>
	<g>
		<path class="st1" d="M-217.5,408.9c-0.5-0.1-1,0.2-1.2,0.7c0,0.1-0.1,0.2-0.1,0.3c0,0,0,0.1-0.1,0.1c-0.1,0.2-0.2,0.4-0.3,0.6
			c-0.4,0.9-0.9,1.8-1.5,2.6c0,0.1-0.1,0.1-0.1,0.2c0,0,0,0,0,0c-0.1,0.1-0.1,0.2-0.2,0.3c-0.2,0.2-0.3,0.4-0.5,0.6
			c-0.3,0.4-0.7,0.8-1.1,1.1c-0.1,0.1-0.2,0.2-0.3,0.3c0,0-0.2,0.2-0.2,0.2c-0.2,0.1-0.3,0.2-0.5,0.3c-0.4,0.2-0.7,0.4-1.1,0.6
			c0.3-0.2,0.6-0.5,0.9-0.8c2.3-2.3,2.4-5.7,2.4-6l0-1.2c0-0.7-0.5-1.2-1.2-1.2c-0.7,0-1.2,0-1.2,0c-0.3,0-3.1,0.1-5.3,1.8
			c0-0.3,0.1-0.5,0.1-0.8c0.1-1.9,0-3.8-0.2-5.7c-0.1-0.5-0.4-1-1-1c-0.5,0-1,0.4-1,1c0.2,1.8,0.4,3.7,0.2,5.5c0,0.3,0,0.5-0.1,0.8
			c0,0,0,0,0,0c0,0,0,0,0,0c0,0.1,0,0.1,0,0.2c0,0.1,0,0.2,0,0.3c-0.1,0.4-0.2,0.9-0.3,1.3c-0.1,0.2-0.1,0.5-0.2,0.7c0,0,0,0,0,0
			c-0.7-1.5-1.6-2.5-1.8-2.6l-0.8-0.8c-0.5-0.5-1.2-0.5-1.7,0c-0.5,0.5-0.8,0.8-0.8,0.8c-0.2,0.2-2.1,2.3-2.5,5.1l-0.7-0.7
			c-0.4-0.4-1-0.3-1.5,0.2c-0.5,0.5-0.8,0.9-0.8,0.9c-0.2,0.2-2.1,2.3-2.5,5.1l-0.7-0.7c-0.4-0.4-1-0.3-1.5,0.2
			c-0.5,0.5-0.8,0.9-0.8,0.9c-0.3,0.3-2.5,2.7-2.5,6c0,3.3,2.3,5.8,2.6,6l0.2,0.2l-5.1,5.1c-0.6,0.6-0.7,1.4-0.3,1.8
			c0.4,0.4,1.2,0.3,1.8-0.3l5.1-5.1c0.3,0.3,2.7,2.6,6,2.6c3.3,0,5.7-2.3,6-2.6l0.8-0.8c0.5-0.5,0.5-1.1,0.2-1.5
			c-0.4-0.4-0.7-0.7-0.7-0.7c2.8-0.4,4.9-2.3,5.1-2.5l0.8-0.8c0.5-0.5,0.5-1.1,0.2-1.5c-0.4-0.4-0.7-0.7-0.7-0.7
			c2.8-0.4,4.9-2.3,5.1-2.5l0.8-0.8c0.5-0.5,0.5-1.2,0-1.7c-0.5-0.5-0.8-0.8-0.8-0.8c-0.1-0.1-0.5-0.5-1.2-1
			c1.7-0.7,3.1-1.9,4.2-3.2c1.4-1.6,2.5-3.4,3.2-5.4C-216.7,409.5-217.1,409-217.5,408.9z M-228.3,411.7c1.7-1.7,4.4-1.7,4.4-1.7
			s0,2.7-1.7,4.4c-1.7,1.7-4.4,1.7-4.4,1.7S-230,413.4-228.3,411.7z M-235.1,410.7c0,0,1.9,2,1.9,4.4s-1.9,4.4-1.9,4.4
			s-1.9-2-1.9-4.4C-237,412.7-235.1,410.7-235.1,410.7z M-240.6,416.2c0,0,1.9,2,1.9,4.4c0,2.4-1.9,4.4-1.9,4.4s-1.9-2-1.9-4.4
			C-242.5,418.1-240.6,416.2-240.6,416.2z M-246,430.4c0,0-1.9-2-1.9-4.4c0-2.4,1.9-4.4,1.9-4.4s1.9,2,1.9,4.4
			C-244.1,428.4-246,430.4-246,430.4z M-239.9,434c-2.2,0-4.1-1.6-4.3-1.9l0.4-0.4c0.7-0.6,2.2-1.5,3.9-1.5c2.4,0,4.4,1.9,4.4,1.9
			S-237.5,434-239.9,434z M-234.5,428.6c-2.2,0-4.1-1.6-4.3-1.9l0.4-0.4c0.7-0.6,2.2-1.5,3.9-1.5c2.4,0,4.4,1.9,4.4,1.9
			S-232.1,428.6-234.5,428.6z M-229,423.1c-2.2,0-4.1-1.6-4.3-1.9l0.1,0l0,0c0.4-0.4,2.2-1.9,4.3-1.9c2.4,0,4.4,1.9,4.4,1.9
			S-226.6,423.1-229,423.1z"/>
	</g>
</g>
</svg>
