<?xml version="1.0" encoding="utf-8"?>
<!-- Generator: Adobe Illustrator 19.0.0, SVG Export Plug-In . SVG Version: 6.00 Build 0)  -->
<svg version="1.1" id="Layer_1" xmlns="http://www.w3.org/2000/svg" xmlns:xlink="http://www.w3.org/1999/xlink" x="0px" y="0px"
	 viewBox="-267 390.5 60.4 60.4" style="enable-background:new -267 390.5 60.4 60.4;" xml:space="preserve">
<style type="text/css">
	.st0{fill:#FFFFFF;}
	.st1{fill:#006633;}
</style>
<g>
	<g>
		<g>
			<circle class="st0" cx="-236.8" cy="420.7" r="28.3"/>
		</g>
	</g>
	<g>
		<g>
			<path class="st1" d="M-219.2,414.2h-5.4c0.4-0.6,0.7-1.2,0.9-1.9c0.6-1.8,0.5-3.5,0.5-3.5l-0.1-2.3l-1.5,2
				c-0.8,1.1-1.7,1.9-2.8,2.7c-0.9,0.6-1.9,1-2.9,1.4c-0.7,0.2-1.3,0.3-1.8,0.4h-6.9c-1.9-0.3-5.2-1.3-7.5-4.5l-1.5-2l-0.1,2.3
				c0,0.1-0.1,1.7,0.5,3.5c0.2,0.7,0.5,1.4,0.9,1.9h-5.4l0,0.7c0,0.1,0,2.1,1.9,3.6c1.2,0.9,2.8,1.5,4.8,1.6c0,2,0.4,3.5,1.2,4.5
				c1.4,1.9,1.8,7.4,1.8,9.4l0,0.2l0.1,0.1c0.1,0.2,0.5,0.5,1.5,0.8c1.2,0.4,3,0.5,5.4,0.5c2.3,0,4.2-0.2,5.4-0.5
				c1-0.3,1.4-0.6,1.5-0.8l0.1-0.1l0-0.2c0-2,0.4-7.5,1.8-9.4c0.8-1,1.2-2.5,1.2-4.5c2-0.1,3.7-0.7,4.8-1.6c1.9-1.5,1.9-3.6,1.9-3.6
				L-219.2,414.2z M-245,414.2c-0.8-1-1.2-2.1-1.4-3.1c0.4,0.4,0.9,0.7,1.4,1c0.7,0.5,1.5,0.9,2.4,1.2c-0.5,0.2-1.1,0.5-1.6,0.8
				H-245L-245,414.2z M-243.1,423c-0.7-0.3-0.8-1-0.4-1.6c0.4-0.6,1.3-0.9,2-0.7c0.7,0.3,0.8,1,0.4,1.6
				C-241.5,423-242.4,423.3-243.1,423z M-230.6,433.7c-0.2,0.1-0.7,0.3-1.5,0.4c-0.5-0.5-1.5-1.2-3.6-1.3v0c0,0,0,0,0,0c0,0,0,0,0,0
				v0c-2.2,0-3.2,0.7-3.7,1.3c-0.9-0.1-1.4-0.3-1.6-0.4c0-0.3,0-0.7-0.1-1.3c1.3-0.9,3.5-2.9,3.6-6.9c0.1-5.5-4.6-6.3-2.8-8.4
				c1.7-2.1,3.7-1.6,4.5-1.6c0.9,0,2.8-0.5,4.5,1.6c1.7,2.1-3,2.9-2.8,8.4c0.1,3.9,2.3,6,3.6,6.9
				C-230.5,433-230.6,433.4-230.6,433.7z M-228.5,423c-0.7,0.3-1.6,0-2-0.7c-0.4-0.6-0.2-1.4,0.4-1.6c0.7-0.3,1.6,0,2,0.7
				C-227.6,422-227.8,422.8-228.5,423z M-226.6,414.2h-0.7c-0.5-0.3-1.1-0.6-1.6-0.8c0.8-0.3,1.6-0.7,2.4-1.2c0.5-0.3,1-0.7,1.4-1
				C-225.4,412.1-225.8,413.2-226.6,414.2z"/>
		</g>
	</g>
</g>
</svg>
