<?xml version="1.0" encoding="utf-8"?>
<!-- Generator: Adobe Illustrator 19.2.1, SVG Export Plug-In . SVG Version: 6.00 Build 0)  -->
<svg version="1.1" id="Layer_1" xmlns="http://www.w3.org/2000/svg" xmlns:xlink="http://www.w3.org/1999/xlink" x="0px" y="0px"
	 viewBox="0 0 23.5 23.5" style="enable-background:new 0 0 23.5 23.5;" xml:space="preserve">
<style type="text/css">
	.st0{fill:#E9580C;}
</style>
<g>
	<path class="st0" d="M9.5,9.9H6.2C6,9.9,5.8,9.7,5.8,9.5V6.4C5.8,6.2,6,6,6.2,6h3.3c0.2,0,0.4,0.2,0.4,0.4v3.1
		C9.9,9.7,9.7,9.9,9.5,9.9 M6.6,9.2h2.6V6.8H6.6V9.2z"/>
	<path class="st0" d="M17.2,9.9h-3.3c-0.2,0-0.4-0.2-0.4-0.4V6.4c0-0.2,0.2-0.4,0.4-0.4h3.3c0.2,0,0.4,0.2,0.4,0.4v3.1
		C17.6,9.7,17.4,9.9,17.2,9.9 M14.3,9.2h2.6V6.8h-2.6V9.2z"/>
	<path class="st0" d="M9.5,17.8H6.2c-0.2,0-0.4-0.2-0.4-0.4v-3.1c0-0.2,0.2-0.4,0.4-0.4h3.3c0.2,0,0.4,0.2,0.4,0.4v3.1
		C9.9,17.6,9.7,17.8,9.5,17.8 M6.6,17.1h2.6v-2.4H6.6V17.1z"/>
	<path class="st0" d="M17.2,17.8h-3.3c-0.2,0-0.4-0.2-0.4-0.4v-3.1c0-0.2,0.2-0.4,0.4-0.4h3.3c0.2,0,0.4,0.2,0.4,0.4v3.1
		C17.6,17.6,17.4,17.8,17.2,17.8 M14.3,17.1h2.6v-2.4h-2.6V17.1z"/>
	<path class="st0" d="M15.6,14.7c-0.2,0-0.4-0.2-0.4-0.4V9.5c0-0.2,0.2-0.4,0.4-0.4s0.4,0.2,0.4,0.4v4.8
		C15.9,14.5,15.8,14.7,15.6,14.7"/>
	<path class="st0" d="M7.7,14.7c-0.2,0-0.4-0.2-0.4-0.4V9.5c0-0.2,0.2-0.4,0.4-0.4C7.9,9.2,8,9.3,8,9.5v4.8
		C8,14.5,7.9,14.7,7.7,14.7"/>
	<path class="st0" d="M13.9,8.2H9.5c-0.2,0-0.4-0.2-0.4-0.4s0.2-0.4,0.4-0.4h4.4c0.2,0,0.4,0.2,0.4,0.4S14.1,8.2,13.9,8.2"/>
	<path class="st0" d="M13.9,16.3H9.5c-0.2,0-0.4-0.2-0.4-0.4c0-0.2,0.2-0.4,0.4-0.4h4.4c0.2,0,0.4,0.2,0.4,0.4
		C14.3,16.2,14.1,16.3,13.9,16.3"/>
	<path class="st0" d="M9.7,14.5c0,0-0.1,0-0.1-0.1c-0.1-0.1-0.1-0.2,0-0.3l0.1-0.1c0.1-0.1,0.2-0.1,0.3,0c0.1,0.1,0.1,0.2,0,0.3
		l-0.1,0.1C9.8,14.5,9.7,14.5,9.7,14.5"/>
	<path class="st0" d="M10.3,13.9c0,0-0.1,0-0.1-0.1c-0.1-0.1-0.1-0.2,0-0.3l0.3-0.3c0.1-0.1,0.2-0.1,0.3,0c0.1,0.1,0.1,0.2,0,0.3
		l-0.3,0.3C10.4,13.8,10.4,13.9,10.3,13.9 M11.1,13.1c0,0-0.1,0-0.1-0.1c-0.1-0.1-0.1-0.2,0-0.3l0.3-0.3c0.1-0.1,0.2-0.1,0.3,0
		c0.1,0.1,0.1,0.2,0,0.3L11.2,13C11.2,13.1,11.2,13.1,11.1,13.1 M11.9,12.3c0,0-0.1,0-0.1-0.1c-0.1-0.1-0.1-0.2,0-0.3l0.3-0.3
		c0.1-0.1,0.2-0.1,0.3,0c0.1,0.1,0.1,0.2,0,0.3L12,12.2C12,12.3,11.9,12.3,11.9,12.3 M12.7,11.5c0,0-0.1,0-0.1-0.1
		c-0.1-0.1-0.1-0.2,0-0.3l0.3-0.3c0.1-0.1,0.2-0.1,0.3,0c0.1,0.1,0.1,0.2,0,0.3l-0.3,0.3C12.8,11.5,12.7,11.5,12.7,11.5 M13.5,10.7
		c0,0-0.1,0-0.1-0.1c-0.1-0.1-0.1-0.2,0-0.3l0.3-0.3c0.1-0.1,0.2-0.1,0.3,0c0.1,0.1,0.1,0.2,0,0.3l-0.3,0.3
		C13.5,10.7,13.5,10.7,13.5,10.7"/>
	<path class="st0" d="M14.2,9.9c0,0-0.1,0-0.1-0.1c-0.1-0.1-0.1-0.2,0-0.3l0.1-0.1c0.1-0.1,0.2-0.1,0.3,0c0.1,0.1,0.1,0.2,0,0.3
		l-0.1,0.1C14.3,9.9,14.3,9.9,14.2,9.9"/>
	<path class="st0" d="M9.8,9.9c0,0-0.1,0-0.1-0.1L9.5,9.8c-0.1-0.1-0.1-0.2,0-0.3c0.1-0.1,0.2-0.1,0.3,0l0.1,0.1
		c0.1,0.1,0.1,0.2,0,0.3C9.9,9.9,9.9,9.9,9.8,9.9"/>
	<path class="st0" d="M13.7,13.9c0,0-0.1,0-0.1-0.1l-0.3-0.3c-0.1-0.1-0.1-0.2,0-0.3c0.1-0.1,0.2-0.1,0.3,0l0.3,0.3
		c0.1,0.1,0.1,0.2,0,0.3C13.8,13.8,13.8,13.9,13.7,13.9 M12.9,13.1c0,0-0.1,0-0.1-0.1l-0.3-0.3c-0.1-0.1-0.1-0.2,0-0.3
		c0.1-0.1,0.2-0.1,0.3,0l0.3,0.3c0.1,0.1,0.1,0.2,0,0.3C13,13.1,13,13.1,12.9,13.1 M12.2,12.3c0,0-0.1,0-0.1-0.1L11.8,12
		c-0.1-0.1-0.1-0.2,0-0.3c0.1-0.1,0.2-0.1,0.3,0l0.3,0.3c0.1,0.1,0.1,0.2,0,0.3C12.2,12.3,12.2,12.3,12.2,12.3 M11.4,11.5
		c0,0-0.1,0-0.1-0.1L11,11.2c-0.1-0.1-0.1-0.2,0-0.3c0.1-0.1,0.2-0.1,0.3,0l0.3,0.3c0.1,0.1,0.1,0.2,0,0.3
		C11.5,11.5,11.4,11.5,11.4,11.5 M10.6,10.7c0,0-0.1,0-0.1-0.1l-0.3-0.3c-0.1-0.1-0.1-0.2,0-0.3c0.1-0.1,0.2-0.1,0.3,0l0.3,0.3
		c0.1,0.1,0.1,0.2,0,0.3C10.7,10.7,10.6,10.7,10.6,10.7"/>
	<path class="st0" d="M14.4,14.5c0,0-0.1,0-0.1-0.1l-0.1-0.1c-0.1-0.1-0.1-0.2,0-0.3c0.1-0.1,0.2-0.1,0.3,0l0.1,0.1
		c0.1,0.1,0.1,0.2,0,0.3C14.5,14.5,14.4,14.5,14.4,14.5"/>
</g>
</svg>
