<?xml version="1.0" encoding="utf-8"?>
<!-- Generator: Adobe Illustrator 19.2.1, SVG Export Plug-In . SVG Version: 6.00 Build 0)  -->
<svg version="1.1" id="Layer_1" xmlns="http://www.w3.org/2000/svg" xmlns:xlink="http://www.w3.org/1999/xlink" x="0px" y="0px"
	 viewBox="0 0 60.4 60.4" style="enable-background:new 0 0 60.4 60.4;" xml:space="preserve">
<style type="text/css">
	.st0{fill-rule:evenodd;clip-rule:evenodd;fill:#FFFFFF;}
	.st1{fill:#E9580C;}
</style>
<g>
	<g>
		<g>
			<circle class="st0" cx="30.2" cy="30.2" r="28.3"/>
		</g>
	</g>
	<g>
		<g>
			<path class="st1" d="M37.1,21.4c-0.1-0.1-0.2-0.1-0.3-0.2l-6.2-2c-2.5-0.8-4.1,0.6-4.6,1c-0.3,0.3-0.5,0.5-0.5,0.8l-2.8,6.5
				c-0.2,0.4-0.1,0.9,0.1,1.4c0.4,0.7,1,1.2,1.8,1.4c0.9,0.2,1.8-0.1,2.5-0.8c0.2-0.2,0.3-0.4,0.4-0.6l0.9-1.7
				c0.2-0.3,0.4-0.6,0.6-0.8c0.8-0.8,1.2-0.4,1.3-0.3c1.4,1.3,8.7,8.7,8.7,8.7c0.3,0.3,0.2,0.8-0.1,1.1c-0.3,0.3-0.8,0.4-1.1,0.1
				L35.8,34c-0.3-0.3-0.7-0.3-1,0c-0.3,0.3-0.3,0.7,0,1l2.1,2.1c0.3,0.3,0.2,0.8-0.1,1.1c-0.3,0.3-0.8,0.4-1.1,0.1l-2.1-2.1
				c-0.3-0.3-0.7-0.3-1,0c-0.3,0.3-0.3,0.7,0,1l2.1,2.1c0.3,0.3,0.2,0.8-0.1,1.1c-0.3,0.3-0.8,0.4-1.1,0.1l-2.1-2.1
				c-0.3-0.3-0.7-0.3-1,0c-0.3,0.3-0.3,0.7,0,1l2.1,2.1c0.3,0.3,0.2,0.8-0.1,1.1c-0.3,0.3-0.8,0.4-1.1,0.1l-2.5-2.5
				c0.4-0.5,0.3-1.3-0.3-1.9c-0.6-0.6-1.5-0.6-2-0.1c0.5-0.5,0.5-1.4-0.1-2c-0.6-0.6-1.5-0.6-2-0.1c0.5-0.5,0.5-1.4-0.1-2
				c-0.6-0.6-1.5-0.6-2-0.1c0.5-0.5,0.5-1.4-0.1-2c-0.6-0.6-1.4-0.6-1.9-0.2l-4.1-4.1c-0.3-0.3-0.7-0.3-1,0c-0.3,0.3-0.3,0.7,0,1
				l4,4l-1.2,1.2c-0.5,0.5-0.5,1.4,0.1,2c0.6,0.6,1.5,0.7,2,0.1c-0.5,0.5-0.5,1.4,0.1,2c0.6,0.6,1.5,0.7,2,0.1
				c-0.5,0.5-0.5,1.4,0.1,2c0.6,0.6,1.5,0.7,2,0.1c-0.5,0.5-0.5,1.4,0.1,2c0.6,0.6,1.5,0.6,2,0.1L28,41l2.5,2.5
				c0.8,0.8,2.1,0.7,3-0.1c0.4-0.4,0.6-1,0.7-1.5c0.5,0,1.1-0.3,1.5-0.7c0.4-0.4,0.6-1,0.7-1.5c0.5,0,1.1-0.3,1.5-0.7
				c0.4-0.4,0.6-1,0.7-1.5c0.5,0,1.1-0.3,1.5-0.7c0.9-0.9,0.9-2.2,0.1-3l-1-1l4.3-4.3c0.3-0.3,0.3-0.7,0-1L37.1,21.4z M37.1,21.4"/>
			<path class="st1" d="M47.3,22.9l-5.5-5.5c-0.5-0.5-1.4-0.5-1.9,0L38,19.3c-0.5,0.5-0.5,1.4,0,1.9l5.5,5.5c0.5,0.5,1.4,0.5,1.9,0
				l1.9-1.9C47.8,24.3,47.8,23.4,47.3,22.9L47.3,22.9z M44.4,25.7c-0.6,0-1.1-0.5-1.1-1.1c0-0.6,0.5-1.1,1.1-1.1
				c0.6,0,1.1,0.5,1.1,1.1C45.5,25.2,45,25.7,44.4,25.7L44.4,25.7z M44.4,25.7"/>
		</g>
	</g>
</g>
</svg>
