<?xml version="1.0" encoding="utf-8"?>
<!-- Generator: Adobe Illustrator 19.2.1, SVG Export Plug-In . SVG Version: 6.00 Build 0)  -->
<svg version="1.1" id="Layer_1" xmlns="http://www.w3.org/2000/svg" xmlns:xlink="http://www.w3.org/1999/xlink" x="0px" y="0px"
	 viewBox="0 0 60.4 60.4" style="enable-background:new 0 0 60.4 60.4;" xml:space="preserve">
<style type="text/css">
	.st0{fill-rule:evenodd;clip-rule:evenodd;fill:#FFFFFF;}
	.st1{fill:#007B3C;}
</style>
<g>
	<g>
		<g>
			<circle class="st0" cx="30.2" cy="30.2" r="28.3"/>
		</g>
	</g>
	<g>
		<path class="st1" d="M43,29.7L31.3,17.9l-1.3,0L17.8,29.7c-0.3,0.3-0.3,0.6-0.2,1c0.1,0.3,0.5,0.5,0.8,0.5h2.1v8.4
			c0,0.5,0.4,0.9,0.9,0.9h6.1c0.5,0,0.9-0.4,0.9-0.9v-6.1h3.7v6.1c0,0.5,0.4,0.9,0.9,0.9h5.8c0.5,0,0.9-0.4,0.9-0.9v-8.4h2.5
			c0.4,0,0.7-0.2,0.8-0.5C43.3,30.4,43.3,30,43,29.7z"/>
	</g>
</g>
</svg>
