<?xml version="1.0" encoding="utf-8"?>
<!-- Generator: Adobe Illustrator 19.2.1, SVG Export Plug-In . SVG Version: 6.00 Build 0)  -->
<svg version="1.1" id="Layer_1" xmlns="http://www.w3.org/2000/svg" xmlns:xlink="http://www.w3.org/1999/xlink" x="0px" y="0px"
	 viewBox="0 0 60.4 60.4" style="enable-background:new 0 0 60.4 60.4;" xml:space="preserve">
<style type="text/css">
	.st0{fill-rule:evenodd;clip-rule:evenodd;fill:#FFFFFF;}
	.st1{fill:#E9580C;}
</style>
<g>
	<g>
		<g>
			<circle class="st0" cx="30.2" cy="30.2" r="28.3"/>
		</g>
	</g>
	<g>
		<path class="st1" d="M23.7,26h6.3c0.9,0,1.6-0.7,1.6-1.6c0-0.9-0.7-1.6-1.6-1.6h-6.3c-0.9,0-1.6,0.7-1.6,1.6S22.8,26,23.7,26
			L23.7,26z M23.7,26"/>
		<path class="st1" d="M23.7,32.9h13.2c0.9,0,1.6-0.7,1.6-1.6c0-0.9-0.7-1.6-1.6-1.6H23.7c-0.9,0-1.6,0.7-1.6,1.6
			C22.1,32.2,22.8,32.9,23.7,32.9L23.7,32.9z M23.7,32.9"/>
		<path class="st1" d="M37.5,36.1H23.7c-0.9,0-1.6,0.7-1.6,1.6c0,0.9,0.7,1.6,1.6,1.6h13.8c0.9,0,1.6-0.7,1.6-1.6
			C39,36.8,38.3,36.1,37.5,36.1L37.5,36.1z M37.5,36.1"/>
		<path class="st1" d="M37.1,16.4H21.2c-1.9,0-3.5,1.6-3.5,3.5v21.8c0,1.9,1.6,3.5,3.5,3.5h18.7c1.9,0,3.5-1.6,3.5-3.5V22.8
			L37.1,16.4z M39.9,42.7H21.2c-0.6,0-1-0.4-1-1V19.9c0-0.6,0.5-1,1-1h14.7v2.8c0,1.2,1,2.3,2.2,2.3l2.8,0v17.7
			C40.9,42.3,40.5,42.7,39.9,42.7L39.9,42.7z M39.9,42.7"/>
	</g>
</g>
</svg>
